<svg width="50" height="61" viewBox="0 0 50 61" fill="none" xmlns="http://www.w3.org/2000/svg">
<path d="M2.73952 53.1116L2.86302 53.2275C2.96375 53.3435 3.05622 53.4594 3.16452 53.5677V53.567C5.3441 55.6734 8.2791 56.8146 11.3086 56.7353C16.1127 56.5808 20.665 54.5503 23.9899 51.0792C25.4374 49.6365 26.662 47.9847 27.6216 46.1799V46.7747C27.6216 54.193 32.1574 60.2901 37.9066 60.8773L38.1074 60.8779C38.3316 60.8779 38.5476 60.9242 38.7794 60.9242H39.3589H39.6529C45.425 60.3681 50 54.2634 50 46.814C50 39.0092 44.9771 32.6494 38.8104 32.6494C35.0314 32.6494 31.6935 35.0374 29.6685 38.6692H29.6692C29.8086 35.559 28.6598 32.5279 26.4928 30.2925C21.4086 25.2159 12.0659 26.3282 5.65259 32.7577C-0.591509 38.9935 -1.812 47.9649 2.73967 53.1122L2.73952 53.1116ZM46.8873 46.7903C46.8873 52.8949 43.2479 57.8639 38.7886 57.8639H38.2091C37.7358 56.4758 37.7006 54.9757 38.1084 53.567C38.1118 53.5159 38.1118 53.4642 38.1084 53.4124C38.4223 51.4792 38.8921 49.5749 39.5145 47.7176C40.697 43.8539 41.8949 39.8895 40.6812 36.0341C44.2282 37.2008 46.8866 41.5744 46.8866 46.7903H46.8873ZM38.7886 35.7167H38.9046C40.45 39.3637 39.2061 43.3668 38.0311 47.2457V47.2464C37.3798 49.17 36.8885 51.1445 36.5629 53.1503C36.1675 54.5385 36.1406 56.006 36.4856 57.4079C33.1318 56.0556 30.6666 51.8131 30.6666 46.7903C30.6825 40.6858 34.3219 35.7167 38.7886 35.7167L38.7886 35.7167ZM26.4635 39.9667C25.9274 43.373 24.3005 46.5136 21.827 48.9153C16.6035 54.1313 9.22383 55.2518 5.37514 51.3957C5.23784 51.2563 5.10882 51.1094 4.98877 50.9555C6.12443 47.9343 8.07974 45.7857 10.5677 44.7736C16.2397 42.8803 21.9269 40.2378 25.4817 33.9552C26.469 35.7939 26.8147 37.9101 26.4635 39.9667L26.4635 39.9667ZM7.82584 34.9438C13.0487 29.7203 20.4285 28.5922 24.2846 32.4559C24.3384 32.5097 24.3771 32.5642 24.424 32.618C21.1087 38.8697 15.5988 41.4583 10.0047 43.3281C7.26629 44.5079 5.09432 46.7054 3.94624 49.4562C1.93712 45.3531 3.39773 39.4105 7.82514 34.9438L7.82584 34.9438Z" fill="#D48521"/>
<path d="M5.20523 3.03807C5.56815 2.0411 6.0242 1.05243 6.42645 0.000976562C5.53159 0.678498 4.71744 1.45608 3.99995 2.3192C3.22652 3.21062 2.61453 4.2303 2.19165 5.3328C1.71697 6.56297 1.60451 7.90431 1.86738 9.19651C2.18199 10.5081 2.84987 11.708 3.79932 12.6663L3.84555 12.7126L3.89936 12.7588H3.90005C4.71282 13.4591 5.40689 14.2863 5.95546 15.2088C6.48396 16.143 6.83515 17.1676 6.99107 18.23C7.147 19.3905 7.16011 20.5662 7.02971 21.73C6.92139 22.9588 6.65851 24.1952 6.42669 25.493V25.4937C7.31604 24.5009 8.04392 23.3742 8.58277 22.1551C9.15198 20.8815 9.46934 19.5086 9.51765 18.1141C9.56319 16.6342 9.25065 15.1653 8.60554 13.833C7.96664 12.549 7.0635 11.4141 5.95543 10.5027C5.36207 9.94525 4.90258 9.26083 4.61072 8.50119C4.3444 7.68154 4.27817 6.80944 4.41753 5.95865C4.57759 4.96031 4.84184 3.98132 5.20544 3.03813L5.20523 3.03807Z" fill="#D48521"/>
<path d="M22.391 2.62831C21.7618 3.77294 21.4051 5.04792 21.3478 6.35266C21.294 7.66494 21.4858 8.97521 21.9122 10.2164C22.0074 10.5289 22.1267 10.8339 22.2675 11.1285C22.3806 11.4286 22.5097 11.7225 22.6539 12.0096C22.8084 12.3111 22.9554 12.5581 23.1023 12.7823L23.5198 13.5164H23.5191C24.6699 15.3109 25.5474 17.2669 26.1236 19.3195C26.354 20.3116 26.3727 21.3409 26.1774 22.3407C25.9394 23.4501 25.533 24.5153 24.9721 25.5014C26.056 24.8756 26.9613 23.9814 27.5994 22.9051C28.2507 21.746 28.5764 20.4324 28.5419 19.1029C28.3797 16.5763 27.5828 14.1312 26.2236 11.9937L25.335 10.5179C25.0707 10.0839 24.8355 9.632 24.6319 9.1656C24.2152 8.23969 23.9213 7.2628 23.7591 6.26027C23.4356 4.09659 23.864 1.88735 24.9721 0.000976562C23.8916 0.628831 22.9995 1.5368 22.391 2.6283L22.391 2.62831Z" fill="#D48521"/>
<path d="M43.5173 7.68106e-05C42.5258 0.575491 41.6779 1.36824 41.0369 2.3183C40.3366 3.28215 39.864 4.39154 39.6536 5.56381C39.4473 6.80089 39.5211 8.06838 39.8702 9.27297C40.2173 10.468 40.7865 11.5871 41.5468 12.5724L41.709 12.7421L41.7628 12.7883L41.7635 12.789C43.5187 14.1737 44.6951 16.1629 45.0628 18.3679C45.2001 19.5333 45.127 20.7137 44.8462 21.8535C44.5212 23.1085 44.0762 24.3298 43.5174 25.5005C44.6578 24.7022 45.6141 23.6694 46.3227 22.4717C47.0879 21.2056 47.526 19.7684 47.5978 18.2906C47.6695 16.7478 47.328 15.2141 46.6084 13.8473C45.9274 12.582 45.0056 11.4615 43.8963 10.548C42.7523 9.19567 42.0775 7.50946 41.9719 5.74178C41.9278 4.7793 42.0402 3.81619 42.3045 2.89014C42.5915 1.88144 42.9992 0.911393 43.5174 0L43.5173 7.68106e-05Z" fill="#D48521"/>
</svg>
