<svg width="15" height="15" viewBox="0 0 15 15" fill="none" xmlns="http://www.w3.org/2000/svg">
<path d="M14.2114 1.28469H12.5964V0H12.028V1.28469H10.5591V0H9.99076V1.28469H4.90996V0H4.34171V1.28469H2.87271V0H2.30434V1.28469H0.695636C0.604414 1.28445 0.514136 1.3023 0.429883 1.33716C0.345513 1.3719 0.268944 1.42306 0.204309 1.4877C0.139673 1.55222 0.0883901 1.62902 0.053294 1.71351C0.0183188 1.798 0.000120277 1.88851 2.30194e-06 1.98009V13.8699C-0.000234012 13.9616 0.0177272 14.0525 0.0525862 14.1373C0.0875613 14.2221 0.138729 14.2992 0.203365 14.364C0.268 14.429 0.344808 14.4804 0.429175 14.5155C0.513664 14.5505 0.604178 14.5685 0.695636 14.5684H14.2114C14.3028 14.5685 14.3933 14.5505 14.4778 14.5155C14.5622 14.4804 14.639 14.429 14.7036 14.364C14.7683 14.2992 14.8196 14.2221 14.8544 14.1373C14.8893 14.0524 14.9072 13.9616 14.907 13.8699V1.98009C14.9069 1.88851 14.8887 1.798 14.8537 1.71351C14.8186 1.62902 14.7673 1.55222 14.7027 1.4877C14.6381 1.42306 14.5615 1.3719 14.4771 1.33716C14.3929 1.3023 14.3026 1.28445 14.2114 1.28469ZM14.3481 13.8699C14.3477 13.9062 14.3332 13.941 14.3077 13.9666C14.2822 13.9922 14.2475 14.0068 14.2114 14.0071H0.695636C0.659478 14.0068 0.624857 13.9922 0.599332 13.9666C0.573807 13.941 0.559275 13.9062 0.558921 13.8699V4.57439H14.3481L14.3481 13.8699ZM14.3481 4.00054H0.558891V1.97993C0.559364 1.94401 0.574016 1.90962 0.599659 1.88457C0.625301 1.8594 0.659805 1.84546 0.695609 1.84593H2.30431V2.89664H2.87268V1.84593H4.34168V2.89664H4.90993V1.84593H9.99074V2.89664H10.5591V1.84593H12.028V2.89664H12.5964V1.84593H14.2113C14.2472 1.84546 14.2817 1.8594 14.3073 1.88457C14.3329 1.90962 14.3476 1.94401 14.3481 1.97993L14.3481 4.00054Z" fill="#D48521"/>
<path d="M12.6039 6.89941H10.5733V7.47099H12.6039V6.89941Z" fill="#D48521"/>
<path d="M8.64022 6.87451H6.6098V7.44609H8.64022V6.87451Z" fill="#D48521"/>
<path d="M3.6296 6.08393C3.84276 6.08393 4.0511 6.14738 4.22821 6.26613C4.40546 6.38501 4.54348 6.55398 4.62513 6.75168C4.70666 6.94937 4.72793 7.16692 4.68645 7.37677C4.64486 7.58663 4.54217 7.77936 4.39151 7.93061C4.24085 8.08198 4.04884 8.18502 3.83981 8.22674C3.6309 8.26845 3.41419 8.24706 3.21733 8.16517C3.02046 8.08328 2.85221 7.94456 2.73381 7.76672C2.61541 7.58876 2.55219 7.37961 2.55219 7.16574C2.55255 6.87883 2.66622 6.60387 2.86815 6.40111C3.07009 6.19834 3.34399 6.08418 3.62961 6.08396L3.6296 6.08393ZM3.6296 5.55373C3.31209 5.55373 3.00179 5.64826 2.7377 5.82539C2.47372 6.00252 2.26801 6.25434 2.1464 6.54879C2.02493 6.84338 1.99314 7.1675 2.05506 7.48016C2.1171 7.79283 2.27001 8.08008 2.49451 8.30542C2.71902 8.53087 3.0051 8.68436 3.31646 8.74664C3.62783 8.8088 3.95065 8.77689 4.24405 8.65495C4.53733 8.53288 4.78807 8.32634 4.96449 8.06117C5.14091 7.79613 5.23508 7.48454 5.23508 7.16571C5.23508 6.73818 5.06587 6.32814 4.76478 6.02588C4.46382 5.72362 4.05545 5.55371 3.62959 5.55371L3.6296 5.55373Z" fill="#D48521"/>
<path d="M4.06005 6.87549H3.21329V7.44706H4.06005V6.87549Z" fill="#D48521"/>
<path d="M12.6039 8.77051H10.5733V9.34208H12.6039V8.77051Z" fill="#D48521"/>
<path d="M8.64022 8.74561H6.6098V9.31718H8.64022V8.74561Z" fill="#D48521"/>
<path d="M12.6039 10.6416H10.5733V11.2132H12.6039V10.6416Z" fill="#D48521"/>
<path d="M8.64022 10.6162H6.6098V11.1878H8.64022V10.6162Z" fill="#D48521"/>
<path d="M4.6342 10.645H2.60367V11.2166H4.6342V10.645Z" fill="#D48521"/>
</svg>
