<svg width="55" height="44" viewBox="0 0 55 44" fill="none" xmlns="http://www.w3.org/2000/svg">
<g id="Group">
<path id="Vector" d="M32.2973 7.63749V4.57471C32.2387 2.92118 31.3226 1.41771 29.88 0.60781C28.4375 -0.202603 26.6771 -0.202603 25.2346 0.60781C23.792 1.41762 22.8759 2.92118 22.8172 4.57471V7.61753C16.4349 8.7283 10.649 12.0534 6.47684 17.0076C2.30386 21.9625 0.0110733 28.2301 0.0019455 34.7079V36.0737C0.0019455 36.3033 0.0931983 36.5239 0.255761 36.6865C0.418323 36.849 0.638311 36.9403 0.86855 36.9403H54.1334C54.363 36.9403 54.5836 36.849 54.7462 36.6865C54.9087 36.5239 55 36.3033 55 36.0737V34.7079C54.9909 28.25 52.712 22.0005 48.5627 17.0525C44.4128 12.1043 38.6559 8.77197 32.2981 7.63764L32.2973 7.63749ZM24.5498 4.57471C24.6084 3.5407 25.194 2.60944 26.1005 2.10849C27.007 1.60749 28.1075 1.60749 29.0139 2.10849C29.9205 2.60948 30.506 3.54076 30.5646 4.57471V7.38547C28.5661 7.15702 26.5488 7.1522 24.5497 7.37096L24.5498 4.57471ZM53.2669 35.2071H1.73484V34.708C1.73484 27.8748 4.44953 21.3208 9.28171 16.4878C14.1139 11.6563 20.6674 8.94159 27.5018 8.94159C34.3363 8.94159 40.889 11.6563 45.7219 16.4878C50.5541 21.32 53.2688 27.8741 53.2688 34.708L53.2669 35.2071Z" fill="white"/>
<path id="Vector_2" d="M54.1315 41.7339H0.86662C0.387981 41.7339 0 42.1219 0 42.5999C0 43.0785 0.387981 43.4665 0.86662 43.4665H54.1315C54.6101 43.4665 54.9981 43.0785 54.9981 42.5999C54.9981 42.1219 54.6101 41.7339 54.1315 41.7339Z" fill="white"/>
<path id="Vector_3" d="M33.6464 16.5596C33.1678 16.5596 32.7798 16.9476 32.7798 17.4262C32.7798 17.9048 33.1678 18.2928 33.6464 18.2928C36.0837 18.2952 38.42 19.2646 40.1436 20.9875C41.8672 22.7112 42.8364 25.048 42.8395 27.4853C42.8395 27.9633 43.2275 28.3513 43.7062 28.3513C44.1842 28.3513 44.5722 27.9634 44.5722 27.4853C44.5691 24.5881 43.4167 21.8112 41.3686 19.7632C39.3199 17.7151 36.5431 16.5632 33.6465 16.5596L33.6464 16.5596Z" fill="white"/>
</g>
</svg>
