<svg width="35" height="53" viewBox="0 0 35 53" fill="none" xmlns="http://www.w3.org/2000/svg">
<g id="Group">
<path id="Vector" d="M13.3562 26.5557C11.7385 25.719 10.0647 25.2726 8.55828 25.2726C7.3309 25.2726 6.10342 25.5517 5.04341 26.1093C2.58855 27.3367 0.970835 29.8473 0.412835 33.1388C-0.145224 36.542 0.468485 40.3355 2.25391 43.8505C5.04341 49.4852 10.0087 53 14.5277 53C15.7551 53 16.9826 52.721 18.0426 52.1633C23.1753 49.5412 24.4582 41.619 20.8878 34.4779C18.991 30.9073 16.3689 28.1178 13.3563 26.5557H13.3562ZM10.511 39.6106C7.72153 33.9759 6.32678 29.959 5.88046 27.9505C7.21952 29.5126 9.61839 33.0275 12.4079 38.6622C15.1974 44.2968 16.5921 48.3137 17.0385 50.3223C15.6994 48.7601 13.3562 45.1896 10.511 39.6106Z" fill="#E49623"/>
<path id="Vector_2" d="M29.9259 24.3241C28.9775 23.8777 27.973 23.5987 26.9134 23.5987C25.5743 23.5987 24.2356 23.9334 22.8408 24.6588C21.2231 25.4955 19.7723 26.7229 18.4892 28.285C19.9396 29.7914 21.2787 31.5765 22.2271 33.5849C22.5062 34.143 22.7852 34.8123 23.0638 35.4817C25.2952 31.2417 27.1924 28.5636 28.3082 27.2248C27.8618 29.1777 26.5788 33.0268 23.9566 38.3271C24.0682 38.8851 24.1796 39.4989 24.2912 40.1681C24.5142 41.8975 24.5142 43.627 24.2356 45.3008C24.1239 45.8589 24.0126 46.3609 23.9009 46.8072C27.1367 45.9706 30.3166 43.2367 32.3251 39.2754C35.3376 33.3061 34.2776 26.5553 29.9259 24.3237L29.9259 24.3241Z" fill="#E49623"/>
<path id="Vector_3" d="M13.6352 17.7409C13.6908 17.8525 13.6908 17.9082 13.7469 18.0199C13.8025 18.1316 13.8025 18.1872 13.8585 18.2989C13.9142 18.4663 14.0259 18.6336 14.0815 18.7453C14.2489 19.0243 14.3606 19.3033 14.4723 19.4707C14.7513 19.8614 14.9186 20.0287 14.9186 20.0287V19.3033V18.5223V17.5183C14.9186 17.1836 14.9186 16.7929 14.9743 16.4026C15.0299 16.0119 15.086 15.6215 15.1416 15.1752C15.1973 14.7845 15.309 14.3385 15.4206 13.9478C15.5323 13.5014 15.6997 13.0551 15.8114 12.6088C15.9231 12.1067 16.0904 11.6047 16.2021 11.1023C16.3138 10.6003 16.3138 10.0422 16.3138 9.48461C16.3138 8.92655 16.2021 8.48059 16.1464 7.97818C16.0908 7.75519 16.0347 7.53181 15.9791 7.30882C15.9234 7.08583 15.8674 6.9181 15.7561 6.75076C15.6444 6.58342 15.5888 6.41608 15.5331 6.24874C15.4214 6.0814 15.3658 5.91406 15.3101 5.80237C15.1428 5.52334 14.9754 5.30035 14.8637 5.07698C14.5847 4.68626 14.4174 4.51892 14.4174 4.51892V5.24431C14.4174 5.4673 14.4174 5.74633 14.473 6.02535C14.473 6.36003 14.5287 6.63906 14.5287 7.02937V7.58743V8.14549C14.5287 8.53621 14.473 8.92653 14.417 9.37287C14.3613 9.76359 14.2496 10.2096 14.138 10.6003C14.0263 11.0466 13.915 11.493 13.7472 11.9393C13.6355 12.4413 13.4682 12.8877 13.3565 13.4457C13.2448 13.9478 13.1892 14.5059 13.1892 15.0635C13.1892 15.5655 13.2448 16.0675 13.3009 16.5699C13.4118 16.9598 13.5235 17.4062 13.6352 17.7409L13.6352 17.7409Z" fill="#E49623"/>
<path id="Vector_4" d="M17.7079 20.9209C17.7635 21.0882 17.8195 21.1999 17.8195 21.3673C17.8195 21.4229 17.8752 21.4789 17.8752 21.5902C17.8752 21.6459 17.9308 21.7019 17.9308 21.8132C18.0425 22.0923 18.0982 22.3153 18.2099 22.5386C18.3216 22.7616 18.3772 22.985 18.4889 23.1523C18.6006 23.3197 18.6562 23.5431 18.7679 23.7104C19.1026 24.3241 19.326 24.6588 19.326 24.6588C19.326 24.6588 19.2703 24.2681 19.2143 23.5431C19.1587 23.2084 19.1026 22.762 19.1026 22.3157C19.1026 22.0927 19.047 21.8137 19.047 21.5903C18.9913 21.3113 18.9913 21.0322 18.9913 20.7536C18.9913 20.4746 18.9913 20.1956 18.9357 19.8609V19.6379V19.4149V18.9129C18.9357 18.2435 18.9913 17.5738 19.103 16.9044C19.2147 16.2351 19.326 15.5097 19.5494 14.8403C19.7167 14.1149 19.9401 13.3899 20.2187 12.6645C20.4417 11.8835 20.6651 11.1024 20.8324 10.3213C20.9998 9.48462 21.0554 8.7036 21.0554 7.86645C21.0554 7.08541 20.9437 6.30433 20.8324 5.57896C20.7768 5.24428 20.7208 4.85357 20.6095 4.57494C20.4978 4.24026 20.4421 3.96123 20.3304 3.62656C20.2748 3.45922 20.2187 3.34753 20.1631 3.18019C20.1074 3.01285 20.0514 2.90116 19.9957 2.78947C19.8841 2.51044 19.7728 2.28745 19.6611 2.06408C19.4381 1.61771 19.2703 1.22739 19.103 0.948381C18.7683 0.33467 18.5449 0 18.5449 0C18.5449 0 18.6006 0.390719 18.7123 1.1157C18.7679 1.45038 18.824 1.89674 18.8796 2.34308C18.9353 2.8451 18.9913 3.3471 19.047 3.9052C19.047 4.07254 19.1026 4.18423 19.1026 4.35157C19.1026 4.51891 19.1026 4.6306 19.1583 4.79794C19.2139 5.13262 19.1583 5.41165 19.2139 5.74632V6.24834V6.75036C19.2139 6.9177 19.2139 7.08504 19.1583 7.25238C19.1583 7.41972 19.1026 7.58707 19.1026 7.75441C19.047 8.42377 18.8796 9.14916 18.7119 9.81854C18.5446 10.5439 18.3212 11.269 18.0982 11.9943C17.8752 12.7197 17.6518 13.5565 17.4845 14.3375C17.3171 15.1186 17.2054 15.9552 17.2054 16.7363C17.2054 17.5173 17.2611 18.2984 17.3171 19.0238C17.3732 19.6935 17.5405 20.3073 17.7079 20.921V20.9209Z" fill="#E49623"/>
</g>
</svg>
