<svg width="164" height="22" viewBox="0 0 164 22" fill="none" xmlns="http://www.w3.org/2000/svg">
<g id="Group 44">
<g id="Group">
<path id="Vector" fill-rule="evenodd" clip-rule="evenodd" d="M11.5129 0.00046979C11.2937 0.00979726 11.1035 0.154465 11.0359 0.363324L8.56619 8.01792L0.525332 8.00201C0.297815 8.00164 0.0959042 8.14814 0.0256696 8.3645C-0.0445603 8.58086 0.0326196 8.81788 0.216789 8.95138L6.73225 13.6662L4.23048 21.3128L4.23066 21.3126C4.15988 21.529 4.23669 21.766 4.42086 21.8999C4.60485 22.0336 4.85413 22.0334 5.03795 21.8993L11.5352 17.1579L18.0347 21.8993V21.8991C18.2185 22.0332 18.4678 22.0334 18.652 21.8997C18.836 21.7658 18.9128 21.5286 18.842 21.3124L16.3402 13.6658L22.8557 8.95102L22.8559 8.9512C23.0402 8.81769 23.1174 8.58066 23.0472 8.36413C22.9768 8.14777 22.775 8.00127 22.5473 8.00182L14.5065 8.01773L12.0339 0.363137C11.9615 0.138911 11.7485 -0.00940954 11.5131 0.000464789L11.5129 0.00046979Z" fill="#D48521"/>
</g>
<g id="Group_2">
<path id="Vector_2" fill-rule="evenodd" clip-rule="evenodd" d="M46.8335 0.00046979C46.6142 0.00979726 46.424 0.154465 46.3565 0.363324L43.8867 8.01792L35.8459 8.00201C35.6184 8.00164 35.4165 8.14814 35.3462 8.3645C35.276 8.58086 35.3532 8.81788 35.5373 8.95138L42.0528 13.6662L39.551 21.3128L39.5512 21.3126C39.4804 21.529 39.5573 21.766 39.7414 21.8999C39.9254 22.0336 40.1747 22.0334 40.3585 21.8993L46.8557 17.1579L53.3553 21.8993V21.8991C53.5391 22.0332 53.7883 22.0334 53.9725 21.8997C54.1565 21.7658 54.2333 21.5286 54.1626 21.3124L51.6608 13.6658L58.1762 8.95102L58.1764 8.9512C58.3608 8.81769 58.438 8.58066 58.3677 8.36413C58.2973 8.14777 58.0956 8.00127 57.8679 8.00182L49.827 8.01773L47.3545 0.363137C47.2821 0.138911 47.069 -0.00940954 46.8336 0.000464789L46.8335 0.00046979Z" fill="#D48521"/>
</g>
<g id="Group_3">
<path id="Vector_3" fill-rule="evenodd" clip-rule="evenodd" d="M81.8335 0.00046979C81.6142 0.00979726 81.424 0.154465 81.3565 0.363324L78.8867 8.01792L70.8459 8.00201C70.6184 8.00164 70.4165 8.14814 70.3462 8.3645C70.276 8.58086 70.3532 8.81788 70.5373 8.95138L77.0528 13.6662L74.551 21.3128L74.5512 21.3126C74.4804 21.529 74.5573 21.766 74.7414 21.8999C74.9254 22.0336 75.1747 22.0334 75.3585 21.8993L81.8557 17.1579L88.3553 21.8993V21.8991C88.5391 22.0332 88.7883 22.0334 88.9725 21.8997C89.1565 21.7658 89.2333 21.5286 89.1626 21.3124L86.6608 13.6658L93.1762 8.95102L93.1764 8.9512C93.3608 8.81769 93.438 8.58066 93.3677 8.36413C93.2973 8.14777 93.0956 8.00127 92.8679 8.00182L84.827 8.01773L82.3545 0.363137C82.2821 0.138911 82.069 -0.00940954 81.8336 0.000464789L81.8335 0.00046979Z" fill="#D48521"/>
</g>
<g id="Group_4">
<path id="Vector_4" fill-rule="evenodd" clip-rule="evenodd" d="M116.834 0.00046979C116.614 0.00979726 116.424 0.154465 116.356 0.363324L113.887 8.01792L105.846 8.00201C105.618 8.00164 105.416 8.14814 105.346 8.3645C105.276 8.58086 105.353 8.81788 105.537 8.95138L112.053 13.6662L109.551 21.3128L109.551 21.3126C109.48 21.529 109.557 21.766 109.741 21.8999C109.925 22.0336 110.175 22.0334 110.359 21.8993L116.856 17.1579L123.355 21.8993V21.8991C123.539 22.0332 123.788 22.0334 123.973 21.8997C124.157 21.7658 124.233 21.5286 124.163 21.3124L121.661 13.6658L128.176 8.95102L128.176 8.9512C128.361 8.81769 128.438 8.58066 128.368 8.36413C128.297 8.14777 128.096 8.00127 127.868 8.00182L119.827 8.01773L117.355 0.363137C117.282 0.138911 117.069 -0.00940954 116.834 0.000464789L116.834 0.00046979Z" fill="#D48521"/>
</g>
<g id="Group_5">
<path id="Vector_5" fill-rule="evenodd" clip-rule="evenodd" d="M151.834 0.00046979C151.614 0.00979726 151.424 0.154465 151.356 0.363324L148.887 8.01792L140.846 8.00201C140.618 8.00164 140.416 8.14814 140.346 8.3645C140.276 8.58086 140.353 8.81788 140.537 8.95138L147.053 13.6662L144.551 21.3128L144.551 21.3126C144.48 21.529 144.557 21.766 144.741 21.8999C144.925 22.0336 145.175 22.0334 145.359 21.8993L151.856 17.1579L158.355 21.8993V21.8991C158.539 22.0332 158.788 22.0334 158.973 21.8997C159.157 21.7658 159.233 21.5286 159.163 21.3124L156.661 13.6658L163.176 8.95102L163.176 8.9512C163.361 8.81769 163.438 8.58066 163.368 8.36413C163.297 8.14777 163.096 8.00127 162.868 8.00182L154.827 8.01773L152.355 0.363137C152.282 0.138911 152.069 -0.00940954 151.834 0.000464789L151.834 0.00046979Z" fill="#D48521"/>
</g>
</g>
</svg>
