<?xml version="1.0" encoding="utf-8"?><svg viewBox="0 0 164 61" xmlns="http://www.w3.org/2000/svg" xmlns:xlink="http://www.w3.org/1999/xlink"><style>:root>svg{display:none}:root>svg:target{display:block}</style><svg fill="none" viewBox="0 0 25 30" id="beans" xmlns="http://www.w3.org/2000/svg"><path d="M24.802 19.374c-.168-1.237-.674-2.361-1.462-3.373-.787-.956-1.799-1.743-3.035-2.418a4.348 4.348 0 0 0-.9-.393l.337-.844c.506-1.461.787-2.867.844-4.273.056-1.405-.169-2.698-.675-3.823-.506-1.18-1.237-2.192-2.249-2.923-.956-.731-2.136-1.18-3.43-1.293-1.236-.113-2.53.056-3.879.506A14.785 14.785 0 0 0 6.53 2.564c-1.237.955-2.417 2.08-3.373 3.43C2.2 7.342 1.414 8.747.852 10.21c-.506 1.462-.787 2.867-.844 4.273-.056 1.405.17 2.698.675 3.823.056.168.169.337.225.506l-.169.337c-.506 1.18-.674 2.418-.506 3.598.169 1.237.675 2.362 1.462 3.374.787.956 1.8 1.743 3.036 2.417a13.852 13.852 0 0 0 4.16 1.293c1.575.225 3.149.225 4.78 0 1.63-.225 3.204-.674 4.61-1.349a13.61 13.61 0 0 0 3.654-2.361c1.012-.956 1.8-2.024 2.305-3.149.506-1.124.675-2.361.562-3.598ZM16.594 2.283v-.225c.112.056.281.168.393.28 1.63 1.181 2.474 3.262 2.418 5.792-.056 1.574-.45 3.148-1.125 4.722a13.154 13.154 0 0 0-2.136-.506 17.007 17.007 0 0 0-4.779 0c-1.124.169-2.249.45-3.317.787 0 0 0-.056.056-.056.057-.056.057-.112.113-.112.056-.056.056-.113.112-.113l.225-.225c.056-.056.113-.056.113-.112l.337-.337c.056-.057.112-.057.112-.113.057-.056.113-.056.113-.112l.168-.113c.057-.056.113-.056.17-.112l.168-.113.112-.112.169-.112c.056-.057.112-.057.169-.113l.337-.169c.225-.112.45-.28.675-.393l.28-.225.113-.112.338-.225.112-.113.281-.225.113-.112.168-.113.787-.787c.338-.337.675-.73 1.012-1.18l.113-.169c.056-.056.056-.112.112-.169l.225-.337c.056-.112.112-.225.225-.337l.112-.113.113-.168c.225-.45.45-.9.618-1.406 0-.056.056-.112.056-.169l.057-.168c.056-.113.056-.225.112-.338 0-.056.056-.112.056-.168 0-.057.057-.113.057-.169l.056-.169V3.52c.056-.224.112-.506.112-.73.113-.225.113-.338.169-.506ZM1.189 14.595c.056-2.586 1.125-5.397 2.924-7.815 1.799-2.417 4.16-4.216 6.634-5.06 2.136-.73 4.16-.618 5.734.282v.056c0 .112 0 .168-.056.28 0 .113-.056.226-.056.338-.056.225-.112.506-.169.731v.225l-.056.169c0 .056-.056.112-.056.168 0 .056-.056.113-.056.169-.056.112-.113.225-.113.337l-.056.169c0 .056-.056.112-.056.169-.225.45-.45.843-.731 1.293l-.113.168-.112.113c-.056.112-.169.225-.225.28l-.225.282c-.056.056-.056.112-.112.112l-.225.113c-.337.393-.675.73-1.012 1.012l-.112.112c-.057.057-.113.057-.113.113l-.281.225c-.056.056-.169.112-.225.168l-.056.057-.169.112-.112.112-.281.225-.057.057-.168.056-.338.225-.112.112-.337.169c-.225.112-.394.225-.619.337l-.337.169c-.056.056-.113.112-.169.112l-.169.113c-.45.28-.9.562-1.293.843l-.168.112c-.056.057-.113.057-.169.113-.112.056-.225.169-.281.225-.056.056-.112.112-.169.112-.056.056-.112.113-.168.113l-.282.28c-.168.17-.337.394-.505.563-.057.112-.17.225-.225.337-.057.113-.169.225-.225.338-.056.056-.056.112-.113.168l-.056.056-.056.225c-1.012.563-1.912 1.181-2.643 1.912a9.119 9.119 0 0 0-1.405 1.574c-.281-.9-.45-1.968-.45-3.036Zm.225 8.04a5.51 5.51 0 0 1 .281-2.53c.169-.394.337-.844.562-1.238.394-.674.956-1.349 1.63-1.967.338-.281.62-.563 1.013-.844.562-.393 1.124-.787 1.799-1.068a15.136 15.136 0 0 1 4.835-1.462 14.201 14.201 0 0 1 6.184.394c.394.112.787.225 1.125.393.28.113.562.225.843.394 1.687.9 2.924 2.08 3.542 3.486v.056l-.112.112c-.113.057-.169.17-.282.225-.168.169-.393.281-.562.45-.393.281-.787.562-1.237.787-.393.225-.843.45-1.293.675-.225.112-.45.168-.674.281-.113.056-.225.056-.338.112l-.056.057h-.056c-.056 0-.113.056-.169.056l-.169.056c-.056 0-.112.056-.168.056h-.225c-.056 0-.112.056-.169.056l-.674.17c-.225.055-.45.055-.675.112H13.445c-.056 0-.112 0-.168-.057l-.169-.056h-.225l-.168-.112c-.057 0-.113-.056-.17-.056l-.224-.057-.169-.056c-.224-.056-.506-.112-.73-.169l-.338-.056h-.225l-.337-.112h-.169l-.45-.056H8.386c-.506 0-1.012.056-1.518.112h-.17c-.055 0-.112 0-.168.056l-.393.056c-.113 0-.225.057-.394.057h-.225l-.168.056c-.113 0-.17.056-.282.056a6.694 6.694 0 0 0-1.124.45c-.056 0-.112.056-.169.056l-.168.056-.338.169c-.056.056-.112.056-.168.112-.057.057-.113.057-.169.113l-.169.112-.112.113c-.225.112-.394.28-.619.45-.112.056-.168.168-.28.224l-.17.17c-.112-.17-.168-.282-.168-.45Zm19.734 2.642c-1.912 1.743-4.61 2.98-7.59 3.373-2.98.394-5.903 0-8.264-1.18-2.024-1.013-3.317-2.53-3.767-4.273.056-.057.112-.113.225-.17.112-.055.225-.168.28-.224.226-.113.394-.281.62-.394l.055-.056s.057 0 .057-.056l.168-.056c.057 0 .113-.056.169-.056.056 0 .112-.057.169-.057l.337-.168.169-.057h.056c.056 0 .056 0 .112-.056.45-.169.956-.28 1.406-.393l.169-.057h.224c.113 0 .225-.056.338-.056l.337-.056h.337a6.347 6.347 0 0 1 1.462 0h.337l.338.056c.112 0 .168 0 .28.056h.451l.337.057h.225l.337.112h.225l.225.056.113.056c.224.057.45.113.674.225l.338.113c.056 0 .112.056.168.056l.169.056 1.518.338h.338c.112 0 .28 0 .393.056h.787c.28 0 .506 0 .787-.056.112 0 .281 0 .393-.057.113 0 .282-.056.394-.056.056 0 .112 0 .169-.056h.224c.057 0 .113-.056.17-.056.055 0 .112-.056.168-.056.056 0 .112-.057.169-.057l.112-.056c.056 0 .056 0 .112-.056.057 0 .113-.056.17-.056l.168-.057c.056 0 .112-.056.168-.056.057 0 .057 0 .113-.056l.45-.225c.225-.112.45-.225.674-.393.45-.282.9-.563 1.293-.9.394-.337.787-.675 1.125-1.068.056-.113.168-.169.225-.281.056-.113.168-.225.225-.282.056-.112.168-.224.224-.337.113.337.225.731.282 1.068.618 2.193-.282 4.217-2.137 5.904Z" fill="#D48521"/></svg><svg fill="none" viewBox="0 0 20 16" id="comments" xmlns="http://www.w3.org/2000/svg"><path fill-rule="evenodd" clip-rule="evenodd" d="M4.052 5.758C1.683 6.354 0 8.16 0 10.25a4.135 4.135 0 0 0 1.08 2.745l-.374 2.429a.5.5 0 0 0 .82.455l1.658-1.421a6.808 6.808 0 0 0 2.566.492 6.238 6.238 0 0 0 4.64-1.922.499.499 0 0 0 .092-.145c.502.078 1.01.117 1.518.117a9.484 9.484 0 0 0 3.705-.737l2.469 2.117a.5.5 0 0 0 .82-.456l-.55-3.57A5.712 5.712 0 0 0 20 6.5C20 2.946 16.442 0 12 0 7.871 0 4.506 2.546 4.052 5.758Zm-.043 1.05c-1.743.538-3.01 1.86-3.01 3.442.016.843.364 1.646.969 2.233a.5.5 0 0 1 .136.425L1.9 14.242l.872-.748a.5.5 0 0 1 .538-.072 5.746 5.746 0 0 0 2.44.528 5.36 5.36 0 0 0 3.621-1.31c-3.022-.857-5.205-3.147-5.361-5.832Zm12.106 4.49a.5.5 0 0 0-.538-.073A8.428 8.428 0 0 1 12 12c-3.837 0-7-2.43-7-5.5C5 3.432 8.163 1 12 1c3.836 0 7 2.431 7 5.5a4.772 4.772 0 0 1-1.445 3.34.5.5 0 0 0-.136.425l.38 2.477-1.684-1.444Z" fill="#D48521"/></svg><svg fill="none" viewBox="0 0 50 61" id="cooked-beans" xmlns="http://www.w3.org/2000/svg"><path d="m2.74 53.112.123.115c.1.117.193.232.302.34a11.294 11.294 0 0 0 8.144 3.168 18.378 18.378 0 0 0 12.68-5.656 20.518 20.518 0 0 0 3.633-4.9v.596c0 7.418 4.535 13.515 10.285 14.102h.2c.225 0 .44.047.672.047H39.653C45.425 60.368 50 54.264 50 46.814c0-7.805-5.023-14.165-11.19-14.165-3.779 0-7.117 2.388-9.142 6.02h.001c.14-3.11-1.01-6.141-3.176-8.376-5.084-5.077-14.427-3.965-20.84 2.465-6.245 6.235-7.465 15.207-2.913 20.354Zm44.147-6.322c0 6.105-3.64 11.074-8.098 11.074h-.58a7.152 7.152 0 0 1-.1-4.297 1.173 1.173 0 0 0 0-.155 36.16 36.16 0 0 1 1.405-5.694c1.183-3.864 2.38-7.829 1.167-11.684 3.547 1.167 6.206 5.54 6.206 10.756ZM38.79 35.717h.116c1.545 3.647.301 7.65-.874 11.529a36.79 36.79 0 0 0-1.468 5.904 8.301 8.301 0 0 0-.077 4.258c-3.354-1.352-5.82-5.595-5.82-10.618.017-6.104 3.656-11.073 8.123-11.073Zm-12.326 4.25a15.924 15.924 0 0 1-4.636 8.948c-5.224 5.216-12.603 6.337-16.452 2.48a5.08 5.08 0 0 1-.386-.44c1.135-3.02 3.09-5.17 5.579-6.181 5.672-1.894 11.359-4.536 14.914-10.819a9.374 9.374 0 0 1 .982 6.012ZM7.826 34.944c5.223-5.224 12.602-6.352 16.459-2.488.053.054.092.108.139.162-3.315 6.252-8.825 8.84-14.42 10.71a11.492 11.492 0 0 0-6.058 6.128c-2.009-4.103-.548-10.046 3.88-14.512ZM5.205 3.038c.363-.997.82-1.986 1.221-3.037A14.671 14.671 0 0 0 4 2.319a10.139 10.139 0 0 0-1.808 3.014 6.91 6.91 0 0 0-.325 3.864 7.372 7.372 0 0 0 1.932 3.47l.047.046.053.046H3.9a9.94 9.94 0 0 1 2.055 2.45c.529.934.88 1.959 1.036 3.021.156 1.16.17 2.336.039 3.5-.109 1.229-.371 2.465-.603 3.763.889-.992 1.617-2.119 2.156-3.338.569-1.274.886-2.646.935-4.04a9.175 9.175 0 0 0-.912-4.282 10.19 10.19 0 0 0-2.65-3.33A5.407 5.407 0 0 1 4.61 8.5a5.403 5.403 0 0 1-.193-2.542c.16-.999.424-1.978.787-2.92ZM22.391 2.628a8.507 8.507 0 0 0-1.043 3.725 10.56 10.56 0 0 0 .564 3.863c.095.313.215.618.355.913a8.233 8.233 0 0 0 .835 1.654l.418.733a21.528 21.528 0 0 1 2.604 5.804c.23.992.249 2.02.053 3.02a11.1 11.1 0 0 1-1.205 3.161 7.294 7.294 0 0 0 2.627-2.596 7.37 7.37 0 0 0 .943-3.802 15.044 15.044 0 0 0-2.318-7.11l-.889-1.475c-.264-.434-.5-.886-.703-1.352a11.591 11.591 0 0 1-.873-2.906A9.566 9.566 0 0 1 24.972.001a6.958 6.958 0 0 0-2.581 2.627ZM43.517 0a7.585 7.585 0 0 0-2.48 2.318 7.893 7.893 0 0 0-1.383 3.246 8.375 8.375 0 0 0 .216 3.709 9.94 9.94 0 0 0 1.677 3.3l.162.17.054.045v.001a8.99 8.99 0 0 1 3.3 5.579 9.784 9.784 0 0 1-.217 3.486 20.254 20.254 0 0 1-1.329 3.646 9.769 9.769 0 0 0 2.806-3.028 8.921 8.921 0 0 0 1.275-4.181 8.673 8.673 0 0 0-.99-4.444 11.074 11.074 0 0 0-2.712-3.299 8.198 8.198 0 0 1-1.924-4.806 8.906 8.906 0 0 1 .332-2.852A13.102 13.102 0 0 1 43.517 0Z" fill="#D48521"/></svg><svg fill="none" viewBox="0 0 50 53" id="cup-of-coffee-orange" xmlns="http://www.w3.org/2000/svg"><g fill="#D48521"><path d="M49.427 25.154c-.899-3.078-6.312-3.367-9.268-3.289.191-1.383.24-2.264.246-2.414l.068-1.458H0l.068 1.459c.03.625.783 14.24 9.973 23.66h-5.78a2.722 2.722 0 0 0-2.72 2.718v.954a2.722 2.722 0 0 0 2.72 2.72h4.394L12.407 53h15.659l3.752-3.496h4.395a2.722 2.722 0 0 0 2.719-2.719v-.953a2.722 2.722 0 0 0-2.719-2.72h-5.782a30.314 30.314 0 0 0 3.104-3.75c8.604-4.68 17.118-10.004 15.891-14.208Zm-2.675.78c.029.097.474 2.227-10.403 8.636 1.755-3.615 2.755-7.151 3.323-9.898 4.003-.188 6.89.605 7.08 1.262ZM26.97 50.214H13.503l-.763-.71h14.992l-.762.71Zm9.177-3.496H4.326v-.82h31.82v.82Zm-21.999-3.606C5.622 36.135 3.492 24.79 2.993 20.78H37.48c-.498 4.01-2.628 15.356-11.154 22.332H14.148Z"/><path d="M6.61 22.247C4.853 27.1 8.661 35.871 9.852 36.78c.2.152.43.23.655.23a.97.97 0 0 0 .563-.18c.69-.486.459-1.404.028-2.75-1.835-5.734 1.016-11.014 1.045-11.065l.767-1.38H6.83l-.222.612Zm1.566 1.245h1.712c-.52 1.309-1.183 3.45-1.263 5.999-.539-2.06-.841-4.283-.449-6ZM10.625 5.93c.049.09.1.18.154.267l.175.227c.118.155.241.297.37.414.255.265.517.459.789.66.268.164.542.357.813.489.27.146.548.283.822.393.275.12.551.234.824.326l.777.27c.226.082.469.152.672.25.214.088.435.17.612.271.206.091.35.199.504.294.123.094.245.189.284.244.063.062.04.066.077.07.04.003-.013.285-.236.613a6.23 6.23 0 0 1-.894 1.011c-.715.677-1.556 1.318-2.413 1.958-.858.643-1.748 1.272-2.64 1.95 1.12-.118 2.202-.39 3.268-.734 1.064-.357 2.105-.802 3.115-1.435a6.877 6.877 0 0 0 1.47-1.202c.12-.117.232-.27.343-.421.115-.14.211-.33.307-.514.101-.17.167-.415.234-.633.061-.227.075-.502.083-.754a2.845 2.845 0 0 0-.484-1.431c-.26-.4-.555-.66-.846-.908a6.1 6.1 0 0 0-.877-.556c-.293-.168-.576-.284-.863-.404-1.211-.456-2.108-.647-2.984-1.027-.882-.342-1.539-.857-1.667-1.196-.079-.185-.06-.514.104-.906.164-.387.44-.798.755-1.194.632-.8 1.413-1.555 2.226-2.322a8.885 8.885 0 0 0-1.608.51 9.045 9.045 0 0 0-1.528.799c-.489.328-.97.704-1.386 1.234-.205.27-.402.565-.536.936a2.86 2.86 0 0 0-.192 1.228c.044.433.172.875.376 1.223ZM21.428 5.93c.048.09.1.18.154.267l.175.227c.117.155.24.297.369.414.255.265.517.459.79.66.268.164.542.357.813.489.27.146.548.283.822.393.275.12.55.234.824.326l.776.27c.227.082.47.152.673.25.214.088.435.17.612.271.205.091.35.199.503.294.124.094.245.189.284.244.064.062.04.066.077.07.04.003-.012.285-.236.613-.22.323-.535.677-.894 1.011-.715.677-1.556 1.318-2.412 1.958-.859.643-1.748 1.272-2.64 1.95 1.119-.118 2.201-.39 3.268-.734 1.064-.357 2.105-.802 3.115-1.435a6.88 6.88 0 0 0 1.47-1.202c.12-.117.232-.27.343-.421.115-.14.21-.33.307-.514.1-.17.166-.415.234-.633.06-.227.074-.502.082-.754a2.844 2.844 0 0 0-.483-1.431c-.26-.4-.555-.66-.846-.908a6.105 6.105 0 0 0-.877-.556c-.294-.168-.577-.284-.863-.404-1.212-.456-2.109-.647-2.984-1.027-.883-.342-1.54-.856-1.669-1.196-.078-.185-.06-.514.105-.906.164-.387.44-.798.754-1.193C24.708 1.522 25.49.767 26.302 0a8.88 8.88 0 0 0-1.608.51 9.04 9.04 0 0 0-1.528.799c-.489.328-.97.704-1.386 1.234-.206.27-.403.564-.537.935a2.86 2.86 0 0 0-.192 1.228c.044.434.172.876.377 1.224Z"/></g></svg><svg fill="none" viewBox="0 0 52 53" id="cup-of-coffee-white" xmlns="http://www.w3.org/2000/svg"><g fill="#fff"><path d="M47.444 40.146h-3.623v-1.87h3.623a2.69 2.69 0 0 0 2.686-2.685v-7.242a2.69 2.69 0 0 0-2.686-2.685h-3.623v-1.87h3.623A4.56 4.56 0 0 1 52 28.35v7.24a4.56 4.56 0 0 1-4.556 4.556Z"/><path d="M34.679 46.839H16.383c-5.555 0-10.08-4.524-10.08-10.08V17.495h38.455v19.264c0 5.556-4.518 10.08-10.079 10.08ZM8.173 19.359v17.4c0 4.528 3.687 8.21 8.21 8.21H34.68c4.529 0 8.21-3.687 8.21-8.21v-17.4H8.173ZM0 50.794h51.067v1.87H0v-1.87ZM20.091 15.462 18.77 14.14a4.072 4.072 0 0 0 0-5.75 5.94 5.94 0 0 1 0-8.39l1.322 1.322a4.072 4.072 0 0 0 0 5.75 5.93 5.93 0 0 1 0 8.39ZM25.953 15.462 24.63 14.14a4.039 4.039 0 0 0 1.19-2.875 4.039 4.039 0 0 0-1.19-2.876 5.94 5.94 0 0 1 0-8.389l1.322 1.322a4.072 4.072 0 0 0 0 5.75 5.895 5.895 0 0 1 1.738 4.198 5.89 5.89 0 0 1-1.738 4.192ZM31.809 15.462l-1.322-1.322a4.072 4.072 0 0 0 0-5.75 5.94 5.94 0 0 1 0-8.39l1.322 1.322a4.072 4.072 0 0 0 0 5.75 5.94 5.94 0 0 1 0 8.39Z"/></g></svg><svg fill="none" viewBox="0 0 15 15" id="date" xmlns="http://www.w3.org/2000/svg"><path d="M14.211 1.285h-1.615V0h-.568v1.285h-1.469V0h-.568v1.285H4.91V0h-.568v1.285h-1.47V0h-.568v1.285H.696a.69.69 0 0 0-.643.429A.7.7 0 0 0 0 1.98v11.89a.699.699 0 0 0 .696.698H14.21a.694.694 0 0 0 .696-.698V1.98a.698.698 0 0 0-.696-.695Zm.137 12.585a.14.14 0 0 1-.137.137H.696a.138.138 0 0 1-.137-.137V4.574h13.79v9.296Zm0-9.87H.558V1.98a.136.136 0 0 1 .138-.134h1.608v1.05h.569v-1.05h1.469v1.05h.568v-1.05h5.08v1.05h.57v-1.05h1.468v1.05h.568v-1.05h1.615a.136.136 0 0 1 .137.134V4Z" fill="#D48521"/><path d="M12.604 6.9h-2.03v.571h2.03v-.572ZM8.64 6.875H6.61v.571h2.03v-.571ZM3.63 6.084a1.075 1.075 0 0 1 .995.668 1.087 1.087 0 0 1-.233 1.179 1.075 1.075 0 0 1-1.84-.765c0-.287.114-.562.316-.765.202-.203.476-.317.762-.317Zm0-.53a1.6 1.6 0 0 0-1.484.995 1.619 1.619 0 0 0 .349 1.756 1.604 1.604 0 0 0 1.749.35 1.607 1.607 0 0 0 .991-1.49c0-.427-.17-.837-.47-1.14a1.602 1.602 0 0 0-1.135-.471Z" fill="#D48521"/><path d="M4.06 6.875h-.847v.572h.847v-.572ZM12.604 8.77h-2.03v.572h2.03v-.571ZM8.64 8.746H6.61v.571h2.03v-.571ZM12.604 10.642h-2.03v.571h2.03v-.571ZM8.64 10.616H6.61v.572h2.03v-.572ZM4.634 10.645h-2.03v.572h2.03v-.572Z" fill="#D48521"/></svg><svg fill="none" viewBox="0 0 136 53" id="desktop-logo" xmlns="http://www.w3.org/2000/svg"><path d="M13.356 26.556c-1.617-.837-3.291-1.283-4.798-1.283-1.227 0-2.455.279-3.515.836C2.59 27.337.971 29.847.413 33.14c-.558 3.403.055 7.197 1.84 10.711C5.044 49.485 10.01 53 14.529 53c1.227 0 2.455-.279 3.515-.837 5.132-2.622 6.415-10.544 2.845-17.685-1.897-3.57-4.52-6.36-7.532-7.922ZM10.511 39.61c-2.79-5.635-4.184-9.652-4.63-11.66 1.339 1.562 3.737 5.077 6.527 10.711 2.79 5.635 4.184 9.652 4.63 11.66-1.339-1.562-3.682-5.132-6.527-10.711Z" fill="#E49623"/><path d="M29.926 24.324c-.948-.446-1.953-.725-3.013-.725-1.339 0-2.677.334-4.072 1.06-1.618.837-3.069 2.064-4.352 3.626 1.45 1.506 2.79 3.291 3.738 5.3.28.558.558 1.227.837 1.897 2.231-4.24 4.128-6.918 5.244-8.257-.446 1.953-1.73 5.802-4.351 11.102.111.558.223 1.172.334 1.841.223 1.73.223 3.459-.055 5.133-.112.558-.223 1.06-.335 1.506 3.236-.836 6.416-3.57 8.424-7.532 3.013-5.969 1.953-12.72-2.4-14.951ZM13.635 17.74c.056.113.056.168.112.28.056.112.056.167.111.279.056.167.168.335.223.446.168.28.28.558.391.726.28.39.447.558.447.558v-2.511c0-.334 0-.725.055-1.115.056-.391.112-.781.168-1.228.055-.39.167-.837.279-1.227.111-.447.279-.893.39-1.34.112-.501.28-1.003.391-1.506.112-.502.112-1.06.112-1.617 0-.558-.112-1.004-.168-1.507l-.167-.67c-.056-.222-.112-.39-.223-.557-.112-.168-.167-.335-.223-.502-.112-.168-.167-.335-.223-.447-.167-.279-.335-.502-.446-.725-.28-.39-.447-.558-.447-.558v.725c0 .223 0 .502.056.781 0 .335.056.614.056 1.004v1.116c0 .391-.056.782-.112 1.228-.056.39-.167.837-.279 1.227-.112.447-.223.893-.39 1.34-.112.501-.28.948-.391 1.506a7.567 7.567 0 0 0-.168 1.617c0 .502.056 1.004.112 1.507.11.39.223.836.334 1.17ZM17.708 20.92c.056.168.112.28.112.447 0 .056.055.112.055.223 0 .056.056.112.056.223.111.28.167.502.279.726.112.223.167.446.279.613.112.168.167.391.279.558.335.614.558.949.558.949s-.056-.39-.112-1.116a7.712 7.712 0 0 1-.111-1.227c0-.223-.056-.502-.056-.726-.056-.279-.056-.558-.056-.836 0-.28 0-.558-.055-.893v-.948c0-.67.055-1.34.167-2.009.112-.669.223-1.394.446-2.064.168-.725.391-1.45.67-2.175.223-.781.446-1.563.613-2.344.168-.836.223-1.617.223-2.455 0-.78-.111-1.562-.223-2.287-.055-.335-.111-.725-.223-1.004-.111-.335-.167-.614-.279-.948-.055-.168-.111-.28-.167-.447-.056-.167-.112-.279-.167-.39a9.073 9.073 0 0 0-.335-.726c-.223-.446-.39-.837-.558-1.116A13.696 13.696 0 0 0 18.545 0s.056.39.167 1.116c.056.334.112.78.168 1.227.055.502.111 1.004.167 1.562 0 .168.056.28.056.447 0 .167 0 .279.055.446.056.335 0 .614.056.948V6.75c0 .168 0 .335-.056.502 0 .168-.055.335-.055.502-.056.67-.223 1.395-.391 2.065-.167.725-.39 1.45-.614 2.175a28.782 28.782 0 0 0-.613 2.344c-.168.78-.28 1.617-.28 2.398 0 .781.056 1.562.112 2.288.056.67.224 1.283.39 1.897Z" fill="#E49623"/><path d="M41.074 25.418h5.977v4.852l4.172-3.153c.586-.445 1.011-.808 1.277-1.09.266-.28.43-.449.492-.504.07-.062.133-.109.188-.14a.62.62 0 0 1 .351-.094c.149 0 .266.043.352.129a.355.355 0 0 1 .129.27.78.78 0 0 1-.035.246.846.846 0 0 1-.141.222c-.156.188-.453.45-.89.785l-2.626 1.993 4.395 10.746c.086.203.168.383.246.539l.187.422.211.398c.055.11.102.215.141.316.04.102.055.2.047.293a.589.589 0 0 1-.082.258c-.11.172-.242.258-.399.258-.218 0-.382-.062-.492-.187a1.797 1.797 0 0 1-.316-.575l-.211-.656c-.07-.219-.164-.48-.281-.785l-4.254-10.418-2.461 1.863V42h-5.977V25.418Zm20.929 14.496c-1.43 0-2.406-.012-2.93-.035l-.34.809a8.522 8.522 0 0 0-.28.714c-.18.485-.43.727-.75.727a.492.492 0 0 1-.364-.14c-.094-.094-.14-.192-.14-.294 0-.172.074-.363.222-.574.234-.328.465-.758.691-1.289-.672-.063-1.008-.258-1.008-.586 0-.328.192-.492.575-.492.234 0 .508.039.82.117l5.848-14.203L72.362 42h-6.105l-.973-2.086h-3.281Zm-2.555-.95c.75.063 1.422.095 2.016.095h3.433l-2.93-6.317-2.519 6.223Zm26.214-7.605-.48-.011a7.465 7.465 0 0 0-.657-.024H81.9V42h-5.976V25.418h9.305l1.16-.035h.21c.587 0 .88.172.88.515a.543.543 0 0 1-.165.375.456.456 0 0 1-.34.165c-.202 0-.398-.02-.585-.06-.36-.077-.828-.116-1.406-.116H81.9v4.218h2.356l1.453-.058c.422 0 .633.156.633.469 0 .312-.227.468-.68.468Zm14.531 0-.481-.011a7.464 7.464 0 0 0-.656-.024H96.43V42h-5.977V25.418h9.305l1.16-.035h.211c.586 0 .879.172.879.515a.545.545 0 0 1-.164.375.457.457 0 0 1-.34.165c-.203 0-.398-.02-.586-.06-.359-.077-.828-.116-1.406-.116H96.43v4.218h2.355l1.453-.058c.422 0 .633.156.633.469 0 .312-.226.468-.679.468Zm15.069 9.633c.398 0 .598.156.598.469 0 .14-.086.266-.258.375-.172.11-.469.164-.891.164h-9.926V25.418h9.235l.961-.035c.586 0 .879.172.879.515a.563.563 0 0 1-.153.375.422.422 0 0 1-.328.165c-.203 0-.418-.024-.644-.07-.336-.071-.797-.106-1.383-.106h-2.59v3.574h2.133l1.441-.059c.172 0 .317.043.434.13a.377.377 0 0 1 .187.34c0 .327-.219.491-.656.491l-.504-.011a7.334 7.334 0 0 0-.644-.036h-2.391v10.454h2.59c.578 0 .988-.024 1.23-.07.289-.056.516-.083.68-.083Zm5.753-.668.035 1.172c0 .203-.055.36-.164.469a.541.541 0 0 1-.398.164.508.508 0 0 1-.375-.152.458.458 0 0 1-.153-.329c0-.125.008-.238.024-.34.023-.109.043-.23.058-.363.039-.226.059-.793.059-1.699V24.668l12.738 10.102v-6.985c0-.531-.016-.91-.047-1.137a8.498 8.498 0 0 1-.058-.773c0-.39.168-.586.504-.586.132 0 .257.047.375.14.125.094.187.231.187.41v.411l-.047 1.7v14.695l-12.738-9.997v7.676Z" fill="#E8E8E8"/></svg><svg fill="none" viewBox="0 0 54 48" id="devices" xmlns="http://www.w3.org/2000/svg"><g fill="#fff"><path d="M47.911 25.412h3.099l-.551 20.522c0 .413.482.826 1.033.826.62 0 1.032-.413 1.032-.826V2.274c0-.345-.274-1.103-.963-1.103-.69 0-2.135.896-2.824 8.953-.688 8.264-.826 13.566-.826 15.288M51.492 48c-1.17 0-2.204-.964-2.204-2.066l.482-19.282h-2.272c-.275 0-.62-.138-.689-.483-.344-1.101.482-13.566.758-16.114C48.116 3.099 49.356 0 51.491 0h.138c1.377 0 2.135 1.377 2.135 2.341v43.661C53.695 47.035 52.73 48 51.492 48M24.194 1.435c-.275 0-.482.138-.482.413v11.845c0 2.066 1.653 3.926 3.788 4.408l.482.068-.275 27.478c0 .482.413.826.964.826.55 0 .964-.345.964-.758L29.36 18.17l.482-.069c2.134-.482 3.787-2.341 3.787-4.407V1.848c0-.138-.206-.413-.482-.413-.275 0-.483.138-.483.413v8.54c0 .895-.826 1.652-1.721 1.652-.964 0-1.722-.688-1.722-1.652v-8.54c0-.551-1.032-.551-1.032 0v8.54c0 .895-.827 1.652-1.722 1.652-.964 0-1.722-.688-1.722-1.652v-8.54c-.069-.137-.275-.413-.55-.413m4.476 46.278c-1.24 0-2.135-.896-2.135-2.066l.275-26.514c-2.479-.757-4.27-2.96-4.27-5.44V1.848c0-.895.758-1.653 1.722-1.653.896 0 1.722.758 1.722 1.653v8.54c0 .275.275.413.482.413.276 0 .483-.276.483-.413v-8.54c0-.895.757-1.653 1.721-1.653.964 0 1.722.69 1.722 1.653v8.54c0 .275.275.413.482.413.275 0 .482-.276.482-.413v-8.54c0-.895.758-1.653 1.722-1.653.895 0 1.722.758 1.722 1.653v11.845c0 2.48-1.79 4.683-4.27 5.44l.275 26.582c0 1.172-.965 1.998-2.135 1.998M7.024 1.435c-3.512 0-5.853 5.51-5.853 9.228.137 4.132 1.653 6.611 4.82 7.506l.413.138-.206 27.477c0 .413.482.758.964.758s.964-.345.964-.758L7.85 18.307l.482-.138c3.168-.758 4.752-3.237 4.752-7.506-.07-3.719-2.549-9.228-6.06-9.228m.068 46.278c-1.17 0-2.135-.896-2.135-1.997l.276-26.582C2.754 18.376.207 16.24 0 10.732 0 6.532 2.686.264 7.024.264c4.339 0 7.231 6.267 7.231 10.399 0 5.647-2.754 7.782-5.234 8.54l.276 26.513c0 1.101-1.033 1.996-2.204 1.996"/><path d="M10.399 9.423c-.275 0-.551-.207-.62-.551-.206-1.86-1.033-3.306-2.204-3.926-.275-.138-.413-.55-.206-.826.138-.275.55-.413.826-.206 1.515.826 2.48 2.617 2.754 4.82.069.344-.206.62-.55.689"/></g></svg><svg viewBox="0 0 25 25" id="facebook" xmlns="http://www.w3.org/2000/svg"><path d="M12.5 0C5.597 0 0 5.626 0 12.565c0 6.299 4.617 11.5 10.631 12.409v-9.08H7.538v-3.302h3.093v-2.198c0-3.639 1.764-5.235 4.772-5.235 1.44 0 2.204.107 2.564.156v2.882h-2.052c-1.277 0-1.723 1.218-1.723 2.59v1.805h3.743l-.508 3.302h-3.235V25C20.292 24.169 25 18.925 25 12.565 25 5.626 19.403 0 12.5 0Z"/></svg><svg viewBox="0 0 22 21" id="instagram" xmlns="http://www.w3.org/2000/svg"><path d="M6.415 0C2.878 0 0 2.749 0 6.126v8.75C0 18.252 2.88 21 6.418 21h9.166C19.122 21 22 18.251 22 14.874v-8.75C22 2.747 19.12 0 15.582 0H6.415ZM17.6 3.36c.486 0 .88.376.88.84 0 .464-.394.84-.88.84s-.88-.376-.88-.84c0-.464.394-.84.88-.84ZM11 5.04c3.155 0 5.72 2.449 5.72 5.46s-2.566 5.46-5.72 5.46c-3.155 0-5.72-2.449-5.72-5.46S7.845 5.04 11 5.04Zm0 1.68c-2.187 0-3.96 1.692-3.96 3.78s1.773 3.78 3.96 3.78c2.187 0 3.96-1.692 3.96-3.78S13.187 6.72 11 6.72Z"/></svg><svg fill="none" viewBox="0 0 55 44" id="lid" xmlns="http://www.w3.org/2000/svg"><g fill="#fff"><path d="M32.297 7.637V4.575a4.742 4.742 0 0 0-9.48 0v3.043A27.535 27.535 0 0 0 .002 34.708v1.366a.867.867 0 0 0 .867.866h53.264a.867.867 0 0 0 .867-.866v-1.366a27.538 27.538 0 0 0-22.702-27.07ZM24.55 4.575a3.012 3.012 0 0 1 6.015 0v2.81a27.05 27.05 0 0 0-6.015-.014V4.575Zm28.717 30.632H1.735v-.499a25.768 25.768 0 0 1 51.534 0l-.002.5ZM54.132 41.734H.867a.866.866 0 1 0 0 1.733h53.265a.867.867 0 0 0 0-1.733Z"/><path d="M33.646 16.56a.867.867 0 0 0 0 1.733 9.203 9.203 0 0 1 9.194 9.192.867.867 0 0 0 1.732 0A10.937 10.937 0 0 0 33.647 16.56Z"/></g></svg><svg viewBox="0 0 21 21" id="linkedIn" xmlns="http://www.w3.org/2000/svg"><path d="M21 0H0v21h21V0ZM7 16.333H4.056V8.167H7v8.166ZM5.476 6.67c-.9 0-1.5-.6-1.5-1.4 0-.8.6-1.4 1.6-1.4.899 0 1.5.6 1.5 1.4 0 .8-.6 1.4-1.6 1.4ZM17.5 16.333h-2.849V11.87c0-1.235-.76-1.52-1.044-1.52-.285 0-1.234.19-1.234 1.52v4.463H9.428V8.167h2.944v1.14c.379-.665 1.138-1.14 2.563-1.14 1.424 0 2.564 1.14 2.564 3.703v4.463Z"/></svg><svg fill="none" viewBox="0 0 35 53" id="mobile-logo" xmlns="http://www.w3.org/2000/svg"><g fill="#E49623"><path d="M13.356 26.556c-1.617-.837-3.291-1.283-4.798-1.283-1.227 0-2.455.279-3.515.836C2.59 27.337.971 29.847.413 33.14c-.558 3.403.055 7.197 1.84 10.711C5.044 49.485 10.01 53 14.529 53c1.227 0 2.455-.279 3.515-.837 5.132-2.622 6.415-10.544 2.845-17.685-1.897-3.57-4.52-6.36-7.532-7.922ZM10.511 39.61c-2.79-5.635-4.184-9.652-4.63-11.66 1.339 1.562 3.737 5.077 6.527 10.711 2.79 5.635 4.184 9.652 4.63 11.66-1.339-1.562-3.682-5.132-6.527-10.711Z"/><path d="M29.926 24.324c-.948-.446-1.953-.725-3.013-.725-1.339 0-2.677.334-4.072 1.06-1.618.837-3.069 2.064-4.352 3.626 1.45 1.506 2.79 3.291 3.738 5.3.28.558.558 1.227.837 1.897 2.231-4.24 4.128-6.918 5.244-8.257-.446 1.953-1.73 5.802-4.351 11.102.111.558.223 1.172.334 1.841.223 1.73.223 3.459-.055 5.133-.112.558-.223 1.06-.335 1.506 3.236-.836 6.416-3.57 8.424-7.532 3.013-5.969 1.953-12.72-2.4-14.951ZM13.635 17.74c.056.113.056.168.112.28.056.112.056.167.111.279.056.167.168.335.223.446.168.28.28.558.391.726.28.39.447.558.447.558v-2.511c0-.334 0-.725.055-1.115.056-.391.112-.781.168-1.228.055-.39.167-.837.279-1.227.111-.447.279-.893.39-1.34.112-.501.28-1.003.391-1.506.112-.502.112-1.06.112-1.617 0-.558-.112-1.004-.168-1.507l-.167-.67c-.056-.222-.112-.39-.223-.557-.112-.168-.167-.335-.223-.502-.112-.168-.167-.335-.223-.447-.167-.279-.335-.502-.446-.725-.28-.39-.447-.558-.447-.558v.725c0 .223 0 .502.056.781 0 .335.056.614.056 1.004v1.116c0 .391-.056.782-.112 1.228-.056.39-.167.837-.279 1.227-.112.447-.223.893-.39 1.34-.112.501-.28.948-.391 1.506a7.567 7.567 0 0 0-.168 1.617c0 .502.056 1.004.112 1.507.11.39.223.836.334 1.17ZM17.708 20.92c.056.168.112.28.112.447 0 .056.055.112.055.223 0 .056.056.112.056.223.111.28.167.502.279.726.112.223.167.446.279.613.112.168.167.391.279.558.335.614.558.949.558.949s-.056-.39-.112-1.116a7.712 7.712 0 0 1-.111-1.227c0-.223-.056-.502-.056-.726-.056-.279-.056-.558-.056-.836 0-.28 0-.558-.055-.893v-.948c0-.67.055-1.34.167-2.009.112-.669.223-1.394.446-2.064.168-.725.391-1.45.67-2.175.223-.781.446-1.563.613-2.344.168-.836.223-1.617.223-2.455 0-.78-.111-1.562-.223-2.287-.055-.335-.111-.725-.223-1.004-.111-.335-.167-.614-.279-.948-.055-.168-.111-.28-.167-.447-.056-.167-.112-.279-.167-.39a9.073 9.073 0 0 0-.335-.726c-.223-.446-.39-.837-.558-1.116A13.696 13.696 0 0 0 18.545 0s.056.39.167 1.116c.056.334.112.78.168 1.227.055.502.111 1.004.167 1.562 0 .168.056.28.056.447 0 .167 0 .279.055.446.056.335 0 .614.056.948V6.75c0 .168 0 .335-.056.502 0 .168-.055.335-.055.502-.056.67-.223 1.395-.391 2.065-.167.725-.39 1.45-.614 2.175a28.782 28.782 0 0 0-.613 2.344c-.168.78-.28 1.617-.28 2.398 0 .781.056 1.562.112 2.288.056.67.224 1.283.39 1.897Z"/></g></svg><svg fill="none" viewBox="0 0 164 22" id="rating" xmlns="http://www.w3.org/2000/svg"><path fill-rule="evenodd" clip-rule="evenodd" d="M11.513 0a.525.525 0 0 0-.477.363l-2.47 7.655-8.04-.016a.525.525 0 0 0-.31.95l6.516 4.714-2.502 7.647a.524.524 0 0 0 .808.586l6.497-4.741 6.5 4.741a.525.525 0 0 0 .807-.587l-2.502-7.646 6.516-4.715a.525.525 0 0 0-.309-.95l-8.04.017L12.034.363a.524.524 0 0 0-.52-.363h-.001ZM46.834 0a.525.525 0 0 0-.478.363l-2.47 7.655-8.04-.016a.525.525 0 0 0-.309.95l6.516 4.714-2.502 7.647a.524.524 0 0 0 .807.586l6.498-4.741 6.5 4.741a.524.524 0 0 0 .807-.587l-2.502-7.646 6.515-4.715a.525.525 0 0 0-.308-.95l-8.041.017L47.355.363A.524.524 0 0 0 46.834 0ZM81.834 0a.525.525 0 0 0-.478.363l-2.47 7.655-8.04-.016a.525.525 0 0 0-.309.95l6.516 4.714-2.502 7.647a.524.524 0 0 0 .808.586l6.497-4.741 6.5 4.741a.524.524 0 0 0 .807-.587l-2.502-7.646 6.515-4.715a.525.525 0 0 0-.308-.95l-8.041.017L82.355.363A.524.524 0 0 0 81.834 0ZM116.834 0a.526.526 0 0 0-.478.363l-2.469 7.655-8.041-.016a.524.524 0 0 0-.309.95l6.516 4.714-2.502 7.647a.524.524 0 0 0 .808.586l6.497-4.741 6.499 4.741a.526.526 0 0 0 .808-.587l-2.502-7.646 6.515-4.715a.524.524 0 0 0-.308-.95l-8.041.017-2.472-7.655a.525.525 0 0 0-.521-.363ZM151.834 0a.526.526 0 0 0-.478.363l-2.469 7.655-8.041-.016a.524.524 0 0 0-.309.95l6.516 4.714-2.502 7.647a.524.524 0 0 0 .808.586l6.497-4.741 6.499 4.741a.526.526 0 0 0 .808-.587l-2.502-7.646 6.515-4.715a.524.524 0 0 0-.308-.95l-8.041.017-2.472-7.655a.525.525 0 0 0-.521-.363Z" fill="#D48521"/></svg><svg viewBox="0 0 26 22" id="twitter" xmlns="http://www.w3.org/2000/svg"><path d="M26 2.601c-.956.445-1.983.742-3.067.882A5.554 5.554 0 0 0 25.28.404a10.394 10.394 0 0 1-3.39 1.347A5.211 5.211 0 0 0 18.004 0c-2.947 0-5.335 2.487-5.335 5.553 0 .434.048.857.14 1.267-4.433-.234-8.365-2.447-10.995-5.807a5.698 5.698 0 0 0-.722 2.797c0 1.928.94 3.625 2.372 4.625a5.231 5.231 0 0 1-2.418-.694v.065c0 2.694 1.84 4.937 4.277 5.448-.445.128-.916.2-1.402.2-.344 0-.68-.042-1.005-.103.679 2.202 2.649 3.81 4.982 3.858-1.826 1.487-4.125 2.378-6.625 2.378-.432 0-.855-.026-1.272-.08C2.362 21.08 5.167 22 8.177 22c9.811 0 15.178-8.463 15.178-15.805 0-.24-.007-.48-.018-.717A10.795 10.795 0 0 0 26 2.601Z"/></svg></svg>