<svg width="25" height="30" viewBox="0 0 25 30" fill="none" xmlns="http://www.w3.org/2000/svg">
<path id="Vector" d="M24.8023 19.3741C24.6336 18.1372 24.1276 17.0127 23.3405 16.0008C22.5534 15.045 21.5414 14.2579 20.3045 13.5832C20.0234 13.4145 19.7423 13.3021 19.405 13.1897L19.7423 12.3463C20.2483 10.8846 20.5294 9.47901 20.5856 8.07346C20.6419 6.66792 20.417 5.37481 19.911 4.25037C19.405 3.06972 18.6741 2.05772 17.6621 1.32684C16.7063 0.595952 15.5257 0.146177 14.2326 0.0337331C12.9957 -0.0787107 11.7026 0.089955 10.3533 0.53973C9.06016 0.989505 7.76705 1.66417 6.53017 2.56372C5.29329 3.51949 4.11263 4.64393 3.15686 5.99325C2.20109 7.34258 1.41398 8.74813 0.851762 10.2099C0.345765 11.6717 0.0646552 13.0772 0.00843328 14.4828C-0.0477886 15.8883 0.177099 17.1814 0.683096 18.3058C0.739318 18.4745 0.851762 18.6432 0.907984 18.8118L0.739318 19.1492C0.233321 20.3298 0.0646552 21.5667 0.233321 22.7474C0.401987 23.9843 0.907984 25.1087 1.69509 26.1207C2.4822 27.0765 3.49419 27.8636 4.73107 28.5382C5.96795 29.1567 7.3735 29.6064 8.89149 29.8313C10.4657 30.0562 12.0399 30.0562 13.6704 29.8313C15.3008 29.6064 16.875 29.1567 18.2805 28.482C19.6861 27.8636 20.8668 27.0765 21.935 26.1207C22.947 25.1649 23.7341 24.0967 24.2401 22.9723C24.7461 21.8478 24.9147 20.6109 24.8023 19.3741ZM16.5939 2.28261V2.05772C16.7063 2.11394 16.875 2.22639 16.9874 2.33883C18.6179 3.51949 19.4612 5.5997 19.405 8.12969C19.3488 9.7039 18.9552 11.2781 18.2805 12.8523C17.6059 12.6274 16.875 12.4588 16.1441 12.3463C14.5699 12.1214 12.9957 12.1214 11.3653 12.3463C10.2408 12.515 9.11638 12.7961 8.04816 13.1334C8.04816 13.1334 8.04816 13.0772 8.10439 13.0772C8.16061 13.021 8.16061 12.9648 8.21683 12.9648C8.27305 12.9085 8.27305 12.8523 8.32927 12.8523L8.55416 12.6274C8.61038 12.5712 8.6666 12.5712 8.6666 12.515L9.00394 12.1777C9.06016 12.1214 9.11638 12.1214 9.11638 12.0652C9.1726 12.009 9.22882 12.009 9.22882 11.9528L9.39749 11.8403C9.45371 11.7841 9.50993 11.7841 9.56616 11.7279L9.73482 11.6154L9.84727 11.503L10.0159 11.3906C10.0722 11.3343 10.1284 11.3343 10.1846 11.2781L10.5219 11.1094C10.7468 10.997 10.9717 10.8283 11.1966 10.7159L11.4777 10.491L11.5901 10.3786L11.9275 10.1537L12.0399 10.0412L12.321 9.81634L12.4335 9.7039L12.6021 9.59146L13.3892 8.80435C13.7266 8.46702 14.0639 8.07346 14.4012 7.62369L14.5137 7.45502C14.5699 7.3988 14.5699 7.34258 14.6261 7.28636L14.851 6.94903C14.9072 6.83658 14.9635 6.72414 15.0759 6.61169L15.1883 6.49925L15.3008 6.33059C15.5257 5.88081 15.7506 5.43103 15.9192 4.92504C15.9192 4.86882 15.9755 4.81259 15.9755 4.75637L16.0317 4.58771C16.0879 4.47526 16.0879 4.36282 16.1441 4.25037C16.1441 4.19415 16.2003 4.13793 16.2003 4.08171C16.2003 4.02549 16.2566 3.96927 16.2566 3.91304L16.3128 3.74438V3.63193V3.51949C16.369 3.2946 16.4252 3.01349 16.4252 2.78861C16.5377 2.56372 16.5377 2.45127 16.5939 2.28261ZM1.18909 14.5949C1.24531 12.0087 2.31353 9.19758 4.11263 6.78036C5.91173 4.36314 8.27305 2.56372 10.7468 1.72039C12.8832 0.989505 14.9072 1.10195 16.4814 2.0015V2.05772C16.4814 2.17016 16.4814 2.22639 16.4252 2.33883C16.4252 2.45127 16.369 2.56372 16.369 2.67616C16.3128 2.90105 16.2566 3.18216 16.2003 3.40705V3.51949V3.63193L16.1441 3.8006C16.1441 3.85682 16.0879 3.91304 16.0879 3.96927C16.0879 4.02549 16.0317 4.08171 16.0317 4.13793C15.9755 4.25037 15.9192 4.36282 15.9192 4.47526L15.863 4.64393C15.863 4.70015 15.8068 4.75637 15.8068 4.81259C15.5819 5.26237 15.357 5.65592 15.0759 6.1057L14.9635 6.27436L14.851 6.38681C14.7948 6.49925 14.6823 6.61169 14.6261 6.66792L14.4012 6.94903C14.345 7.00525 14.345 7.06147 14.2888 7.06147L14.0639 7.17391C13.7266 7.56747 13.3892 7.9048 13.0519 8.18591L12.9395 8.29835C12.8832 8.35457 12.827 8.35457 12.827 8.4108L12.5459 8.63568C12.4897 8.69191 12.3772 8.74813 12.321 8.80435L12.2648 8.86057L12.0961 8.97301L11.9837 9.08546L11.7026 9.31035L11.6464 9.36657L11.4777 9.42279L11.1404 9.64768L11.0279 9.76012L10.6906 9.92879C10.4657 10.0412 10.297 10.1537 10.0722 10.2661L9.73482 10.4348C9.6786 10.491 9.62238 10.5472 9.56616 10.5472L9.39749 10.6597C8.94771 10.9408 8.49794 11.2219 8.10439 11.503L7.93572 11.6154C7.8795 11.6717 7.82328 11.6717 7.76705 11.7279C7.65461 11.7841 7.54217 11.8966 7.48594 11.9528C7.42972 12.009 7.3735 12.0652 7.31728 12.0652C7.26106 12.1214 7.20484 12.1777 7.14861 12.1777L6.8675 12.4588C6.69884 12.6274 6.53017 12.8523 6.36151 13.021C6.30528 13.1334 6.19284 13.2459 6.13662 13.3583C6.0804 13.4708 5.96795 13.5832 5.91173 13.6957C5.85551 13.7519 5.85551 13.8081 5.79929 13.8643L5.74307 13.9205L5.68684 14.1454C4.67485 14.7076 3.7753 15.3261 3.04442 16.057C2.4822 16.563 2.03242 17.069 1.63887 17.6312C1.35776 16.7316 1.18909 15.6634 1.18909 14.5952V14.5949ZM1.41398 22.6343C1.30154 21.791 1.41398 20.8914 1.69509 20.1043C1.86376 19.7108 2.03242 19.261 2.25731 18.8674C2.65086 18.1928 3.21308 17.5181 3.88774 16.8997C4.22508 16.6185 4.50618 16.3374 4.89974 16.0563C5.46196 15.6628 6.02418 15.2692 6.69884 14.9881C8.16061 14.2572 9.79104 13.7512 11.5339 13.5263C13.6704 13.189 15.8068 13.3577 17.7183 13.9199C18.1119 14.0323 18.5054 14.1448 18.8428 14.3135C19.1239 14.4259 19.405 14.5383 19.6861 14.707C21.3728 15.6066 22.6096 16.7872 23.2281 18.1928V18.249L23.1156 18.3614C23.0032 18.4176 22.947 18.5301 22.8345 18.5863C22.6659 18.755 22.441 18.8674 22.2723 19.0361C21.8787 19.3172 21.4852 19.5983 21.0354 19.8232C20.6419 20.0481 20.1921 20.273 19.7423 20.4979C19.5174 20.6103 19.2925 20.6665 19.0677 20.779C18.9552 20.8352 18.8428 20.8352 18.7303 20.8914L18.6741 20.9476H18.6179C18.5617 20.9476 18.5054 21.0039 18.4492 21.0039L18.2805 21.0601C18.2243 21.0601 18.1681 21.1163 18.1119 21.1163H17.887C17.8308 21.1163 17.7746 21.1725 17.7183 21.1725L17.0437 21.3412C16.8188 21.3974 16.5939 21.3974 16.369 21.4536H16.2003H16.0317H15.863H15.6943H15.357H15.1883H15.0197H14.6823H14.5137H14.2326H14.1201H13.9515H13.7828H13.6141H13.4455C13.3892 21.4536 13.333 21.4536 13.2768 21.3974L13.1081 21.3412H12.9957H12.8832L12.7146 21.2287C12.6584 21.2287 12.6021 21.1725 12.5459 21.1725L12.321 21.1163L12.1524 21.0601C11.9275 21.0039 11.6464 20.9476 11.4215 20.8914L11.0841 20.8352H10.9717H10.8593L10.5219 20.7227H10.4657H10.3533L9.90349 20.6665H9.79104H9.6786H9.50993H9.11638H8.72283H8.55416H8.3855C7.8795 20.6665 7.3735 20.7227 6.8675 20.779H6.69884C6.64262 20.779 6.58639 20.779 6.53017 20.8352L6.13662 20.8914C6.02418 20.8914 5.91173 20.9476 5.74307 20.9476H5.51818L5.34951 21.0039C5.23707 21.0039 5.18085 21.0601 5.0684 21.0601C4.67485 21.1725 4.2813 21.3412 3.94397 21.5099C3.88774 21.5099 3.83152 21.5661 3.7753 21.5661L3.60663 21.6223L3.2693 21.791C3.21308 21.8472 3.15686 21.8472 3.10064 21.9034C3.04442 21.9596 2.98819 21.9596 2.93197 22.0159L2.76331 22.1283L2.65086 22.2407C2.42597 22.3532 2.25731 22.5218 2.03242 22.6905C1.91998 22.7467 1.86376 22.8592 1.75131 22.9154L1.58265 23.0841C1.4702 22.9154 1.41398 22.803 1.41398 22.6343ZM21.1475 25.2767C19.236 27.0196 16.5373 28.2565 13.5579 28.65C10.5785 29.0436 7.65461 28.65 5.29361 27.4694C3.26962 26.4574 1.97652 24.9394 1.52675 23.1965C1.58297 23.1403 1.63919 23.0841 1.75163 23.0278C1.86408 22.9716 1.97652 22.8592 2.03274 22.803C2.25763 22.6905 2.4263 22.5218 2.65118 22.4094L2.70741 22.3532C2.70741 22.3532 2.76363 22.3532 2.76363 22.297L2.93229 22.2407C2.98852 22.2407 3.04474 22.1845 3.10096 22.1845C3.15718 22.1845 3.2134 22.1283 3.26962 22.1283L3.60696 21.9596L3.77562 21.9034H3.83184C3.88807 21.9034 3.88807 21.9034 3.94429 21.8472C4.39406 21.6785 4.90006 21.5661 5.34983 21.4536L5.5185 21.3974H5.74339C5.85583 21.3974 5.96828 21.3412 6.08072 21.3412L6.41805 21.285H6.58672H6.75538C7.26138 21.2287 7.71115 21.2287 8.21715 21.285H8.38582H8.55448L8.89181 21.3412C9.00426 21.3412 9.06048 21.3412 9.17292 21.3974H9.22915H9.39781H9.51025H9.6227L9.96003 21.4536H10.0725H10.1849L10.5222 21.5661H10.6347H10.7471L10.972 21.6223L11.0845 21.6785C11.3094 21.7347 11.5342 21.791 11.7591 21.9034L12.0965 22.0159C12.1527 22.0159 12.2089 22.0721 12.2651 22.0721L12.4338 22.1283L13.9518 22.4656H14.1205H14.2891C14.4016 22.4656 14.5702 22.4656 14.6827 22.5218H14.8513H15.0762H15.4698C15.7509 22.5218 15.9758 22.5218 16.2569 22.4656C16.3693 22.4656 16.538 22.4656 16.6504 22.4094C16.7629 22.4094 16.9315 22.3532 17.044 22.3532C17.1002 22.3532 17.1564 22.3532 17.2127 22.297H17.4375C17.4938 22.297 17.55 22.2407 17.6062 22.2407C17.6624 22.2407 17.7187 22.1845 17.7749 22.1845C17.8311 22.1845 17.8873 22.1283 17.9435 22.1283L18.056 22.0721C18.1122 22.0721 18.1122 22.0721 18.1684 22.0159C18.2246 22.0159 18.2809 21.9596 18.3371 21.9596L18.5058 21.9034C18.562 21.9034 18.6182 21.8472 18.6744 21.8472C18.7306 21.8472 18.7306 21.8472 18.7869 21.791L19.2366 21.5661C19.4615 21.4536 19.6864 21.3412 19.9113 21.1725C20.3611 20.8914 20.8109 20.6103 21.2044 20.273C21.598 19.9356 21.9915 19.5983 22.3288 19.2048C22.3851 19.0923 22.4975 19.0361 22.5537 18.9236C22.61 18.8112 22.7224 18.6988 22.7786 18.6425C22.8348 18.5301 22.9473 18.4176 23.0035 18.3052C23.116 18.6425 23.2284 19.0361 23.2846 19.3734C23.9031 21.5661 23.0035 23.5901 21.1482 25.2767H21.1475Z" fill="#D48521"/>
</svg>
