<svg width="20" height="16" viewBox="0 0 20 16" fill="none" xmlns="http://www.w3.org/2000/svg">
<path fill-rule="evenodd" clip-rule="evenodd" d="M4.05195 5.7582C1.68344 6.35417 0 8.15967 0 10.25C0.0102118 11.2667 0.394412 12.2438 1.07947 12.995L0.705983 15.4239C0.674008 15.6307 0.774288 15.8354 0.957096 15.937C1.1399 16.0387 1.36674 16.0157 1.52546 15.8794L3.18396 14.458C3.99939 14.7861 4.87075 14.9532 5.74982 14.95C7.49789 14.988 9.18151 14.2907 10.3907 13.028C10.4291 12.9853 10.4599 12.9362 10.4816 12.883C10.9839 12.9612 11.4914 13.0002 11.9997 13C13.2717 13.0054 14.5319 12.7547 15.7051 12.2631L18.174 14.3796V14.3795C18.3327 14.5157 18.5596 14.5387 18.7424 14.4371C18.9252 14.3354 19.0255 14.1307 18.9935 13.9239L18.4446 10.3539V10.3541C19.4284 9.31018 19.9835 7.9344 19.9994 6.50004C19.9994 2.94612 16.442 0 11.9994 0C7.87063 0.00016744 4.50555 2.54559 4.0517 5.75819L4.05195 5.7582ZM4.00892 6.80819C2.26638 7.34574 0.999931 8.66876 0.999931 10.2501C1.01533 11.093 1.36321 11.8957 1.96789 12.4831C2.07787 12.5954 2.12843 12.7531 2.10449 12.9085L1.89941 14.2419L2.77146 13.4944V13.4946C2.92079 13.3667 3.13138 13.3381 3.30935 13.4216C4.07442 13.7745 4.90742 13.955 5.74981 13.9501C7.07737 13.9767 8.3674 13.5097 9.37032 12.6396C6.34826 11.7827 4.16498 9.4927 4.00898 6.80817L4.00892 6.80819ZM16.115 11.2983C15.9657 11.1702 15.7551 11.1416 15.577 11.2253C14.4557 11.7427 13.2344 12.0072 11.9996 12.0004C8.16309 12.0004 4.99985 9.56994 4.99985 6.5006C4.99985 3.43127 8.16334 1.00083 11.9996 1.00083C15.8361 1.00083 18.9993 3.43127 18.9993 6.5006V6.50043C18.9779 7.76067 18.4588 8.96117 17.5555 9.83989C17.4455 9.95239 17.3949 10.1101 17.4189 10.2654L17.7999 12.7424L16.115 11.2983Z" fill="#D48521"/>
</svg>
