<svg width="50" height="53" viewBox="0 0 50 53" fill="none" xmlns="http://www.w3.org/2000/svg">
<g id="Group">
<path id="Vector" d="M49.4266 25.1537C48.5282 22.0763 43.1148 21.7873 40.159 21.8653C40.3501 20.4822 40.3982 19.6005 40.4049 19.4511L40.4729 17.9927L0 17.993L0.0680242 19.4515C0.09797 20.0774 0.851408 33.6914 10.0414 43.1121L4.26011 43.1117C2.76136 43.1117 1.54132 44.3317 1.54132 45.8305V46.7843C1.54132 48.2831 2.76136 49.5031 4.26011 49.5031H8.65512L12.4065 52.9997H28.066L31.8181 49.5041H36.2131C37.7118 49.5041 38.9319 48.2841 38.9319 46.7854V45.8315C38.9319 44.3328 37.7118 43.1128 36.2131 43.1128H30.431C31.5962 41.9186 32.6256 40.6573 33.535 39.3629C42.1386 34.6814 50.653 29.3583 49.4264 25.1543L49.4266 25.1537ZM46.7525 25.9338C46.7806 26.0306 47.2261 28.1615 36.3494 34.5703C38.1044 30.9554 39.1044 27.4185 39.6719 24.6716C43.675 24.4838 46.5612 25.2772 46.7523 25.9338H46.7525ZM26.9704 50.2143H13.5028L12.7401 49.5037H27.7324L26.9704 50.2143ZM36.1466 46.7181H4.32597V45.8973H36.1466V46.7181ZM14.148 43.1124C5.62238 36.1355 3.49217 24.7887 2.9934 20.7796H37.4792C36.9808 24.7893 34.8507 36.1363 26.3246 43.1124H14.148Z" fill="#D48521"/>
<path id="Vector_2" d="M6.6094 22.2475C4.85369 27.1001 8.66229 35.8712 9.85308 36.7798C10.0535 36.9321 10.283 37.0101 10.5082 37.0101C10.706 37.0101 10.9015 36.9506 11.0712 36.8305C11.7611 36.3443 11.53 35.426 11.0993 34.0796C9.26411 28.3456 12.1152 23.0661 12.1437 23.015L12.9105 21.6353H6.8312L6.6094 22.2475ZM8.1762 23.4918H9.8879C9.36774 24.8009 8.70525 26.9411 8.625 29.4909C8.08598 27.4306 7.78394 25.208 8.17618 23.4918H8.1762Z" fill="#D48521"/>
<path id="Vector_3" d="M10.6251 5.93025C10.6739 6.01971 10.7253 6.10918 10.7792 6.1968L10.9541 6.42379C11.0717 6.57869 11.1952 6.72102 11.3234 6.83785C11.5785 7.10292 11.841 7.29665 12.1127 7.49776C12.3811 7.66191 12.6551 7.85452 12.9261 7.9865C13.1967 8.13291 13.4743 8.27043 13.7483 8.37986C14.0233 8.49927 14.2991 8.61351 14.5723 8.7063L15.3491 8.97544C15.5753 9.05825 15.8178 9.12776 16.0215 9.22646C16.2352 9.31408 16.4563 9.39542 16.6334 9.49708C16.8389 9.58803 16.9828 9.69598 17.1369 9.79099C17.2604 9.88453 17.382 9.97991 17.4208 10.0354C17.4844 10.0967 17.4608 10.1015 17.4977 10.1049C17.5384 10.1082 17.4852 10.3899 17.2619 10.7178C17.0423 11.0409 16.7269 11.3951 16.3676 11.729C15.653 12.4055 14.8116 13.0474 13.9553 13.6866C13.0965 14.3298 12.207 14.9587 11.3146 15.6367C12.4341 15.5191 13.5166 15.2474 14.5831 14.9028C15.6471 14.5461 16.6881 14.1013 17.6985 13.4684C18.2028 13.1512 18.7016 12.7793 19.1684 12.2662C19.2878 12.1486 19.4002 11.9956 19.5111 11.8447C19.6261 11.7057 19.7222 11.515 19.8184 11.3312C19.9193 11.1615 19.9847 10.9157 20.052 10.6976C20.1134 10.4713 20.1267 10.1959 20.1348 9.94412C20.106 9.41176 19.9137 8.88754 19.6513 8.51304C19.3914 8.11376 19.0963 7.85312 18.805 7.60469C18.5144 7.39174 18.2139 7.18915 17.9281 7.04903C17.6349 6.88082 17.3517 6.7651 17.0652 6.64496C15.8537 6.18875 14.9569 5.99836 14.0814 5.6179C13.1993 5.27593 12.542 4.76094 12.4137 4.4219C12.335 4.23705 12.3531 3.90765 12.518 3.51578C12.6821 3.12908 12.9587 2.7176 13.2726 2.32243C13.9051 1.52278 14.6863 0.766698 15.4992 0C14.9469 0.113495 14.4134 0.293174 13.891 0.509441C13.3653 0.722386 12.8574 0.988199 12.363 1.30872C11.8743 1.63664 11.3933 2.01337 10.9767 2.54277C10.7723 2.81339 10.5752 3.10841 10.441 3.47921C10.2935 3.83448 10.2247 4.27073 10.2488 4.70738C10.2932 5.14029 10.4214 5.58171 10.6251 5.93035L10.6251 5.93025Z" fill="#D48521"/>
<path id="Vector_4" d="M21.4276 5.93025C21.4764 6.01971 21.5277 6.10918 21.5817 6.1968L21.7566 6.42379C21.8742 6.57869 21.9976 6.72102 22.1259 6.83785C22.381 7.10292 22.6435 7.29665 22.9152 7.49776C23.1836 7.66191 23.4576 7.85452 23.7286 7.9865C23.9992 8.13291 24.2768 8.27043 24.5508 8.37986C24.8258 8.49927 25.1016 8.61351 25.3748 8.7063L26.1515 8.97544C26.3778 9.05825 26.6203 9.12776 26.824 9.22646C27.0377 9.31408 27.2588 9.39542 27.4359 9.49708C27.6414 9.58803 27.7852 9.69598 27.9394 9.79099C28.0629 9.88453 28.1845 9.97991 28.2233 10.0354C28.2869 10.0967 28.2632 10.1015 28.3002 10.1049C28.3409 10.1082 28.2876 10.3899 28.0643 10.7178C27.8447 11.0409 27.5294 11.3951 27.1701 11.729C26.4554 12.4055 25.614 13.0474 24.7578 13.6866C23.899 14.3298 23.0095 14.9587 22.1171 15.6367C23.2365 15.5191 24.319 15.2474 25.3856 14.9028C26.4495 14.5461 27.4906 14.1013 28.501 13.4684C29.0053 13.1512 29.504 12.7793 29.9709 12.2662C30.0903 12.1486 30.2027 11.9956 30.3136 11.8447C30.4286 11.7057 30.5247 11.515 30.6208 11.3312C30.7218 11.1615 30.7872 10.9157 30.8545 10.6976C30.9158 10.4713 30.9292 10.1959 30.9373 9.94412C30.9085 9.41176 30.7162 8.88754 30.4537 8.51304C30.1938 8.11376 29.8988 7.85312 29.6075 7.60469C29.3169 7.39174 29.0163 7.18915 28.7306 7.04903C28.4374 6.88082 28.1542 6.7651 27.8677 6.64496C26.6562 6.18875 25.7594 5.99836 24.8839 5.6179C24.0014 5.27593 23.3438 4.76168 23.2155 4.42228C23.1367 4.23743 23.1548 3.90803 23.3197 3.51615C23.4839 3.12945 23.7604 2.71798 24.0743 2.32281C24.7079 1.52205 25.4887 0.766793 26.3021 0C25.7497 0.113495 25.2162 0.293174 24.6939 0.509441C24.1682 0.722386 23.6602 0.988199 23.1659 1.30872C22.6772 1.63664 22.1962 2.01337 21.7796 2.54277C21.574 2.81228 21.377 3.10692 21.2435 3.4781C21.096 3.83338 21.0272 4.26962 21.0513 4.70627C21.0953 5.14029 21.2228 5.58172 21.4276 5.93038L21.4276 5.93025Z" fill="#D48521"/>
</g>
</svg>
