<svg width="52" height="53" viewBox="0 0 52 53" fill="none" xmlns="http://www.w3.org/2000/svg">
<g id="Group">
<path id="Vector" d="M47.4442 40.1457H43.821V38.2763H47.4442C48.9238 38.2763 50.1299 37.0703 50.1299 35.5906L50.1303 28.3494C50.1303 26.8697 48.9243 25.6636 47.4445 25.6636H43.8214V23.7942H47.4445C49.9565 23.7942 52 25.8374 52 28.3496V35.5908C51.9996 38.1024 49.9561 40.1456 47.4442 40.1456L47.4442 40.1457Z" fill="white"/>
<path id="Vector_2" d="M34.679 46.8386H16.3832C10.8275 46.8386 6.30388 42.3148 6.30388 36.7593V17.4949H44.7583L44.7587 36.7593C44.7587 42.3154 40.2403 46.8386 34.6794 46.8386H34.679ZM8.17342 19.3588V36.7583C8.17342 41.2873 11.8598 44.9686 16.3837 44.9686H34.6785C39.2076 44.9686 42.8888 41.2823 42.8888 36.7583V19.3588H8.17342Z" fill="white"/>
<path id="Vector_3" d="M0 50.7941H51.0673V52.6635H0V50.7941Z" fill="white"/>
<path id="Vector_4" d="M20.0913 15.4617L18.7695 14.14C20.3546 12.5549 20.3546 9.97422 18.7695 8.38915C16.4574 6.07705 16.4574 2.31173 18.7695 0L20.0913 1.32175C18.5062 2.90682 18.5062 5.4875 20.0913 7.07257C22.4086 9.38467 22.4086 13.15 20.0913 15.4617Z" fill="white"/>
<path id="Vector_5" d="M25.9529 15.4616L24.6311 14.1398C25.4 13.371 25.8213 12.3494 25.8213 11.2646C25.8213 10.1799 25.4 9.15828 24.6311 8.3894C22.319 6.07729 22.319 2.31197 24.6311 0.000244141L25.9529 1.322C24.3678 2.90706 24.3678 5.48775 25.9529 7.07282C27.0748 8.19473 27.6908 9.685 27.6908 11.2702C27.6908 12.8498 27.0747 14.3401 25.9529 15.4616Z" fill="white"/>
<path id="Vector_6" d="M31.8088 15.4617L30.4871 14.14C32.0722 12.5549 32.0722 9.97422 30.4871 8.38915C28.175 6.07705 28.175 2.31173 30.4871 0L31.8088 1.32175C30.2238 2.90682 30.2238 5.4875 31.8088 7.07257C34.1206 9.38467 34.1206 13.15 31.8088 15.4617Z" fill="white"/>
</g>
</svg>
