<svg width="136" height="53" viewBox="0 0 136 53" fill="none" xmlns="http://www.w3.org/2000/svg">
<path d="M13.3562 26.5557C11.7385 25.719 10.0647 25.2726 8.55828 25.2726C7.3309 25.2726 6.10342 25.5517 5.04341 26.1093C2.58855 27.3367 0.970835 29.8473 0.412835 33.1388C-0.145224 36.542 0.468485 40.3355 2.25391 43.8505C5.04341 49.4852 10.0087 53 14.5277 53C15.7551 53 16.9826 52.721 18.0426 52.1633C23.1753 49.5412 24.4582 41.619 20.8878 34.4779C18.991 30.9073 16.3689 28.1178 13.3563 26.5557H13.3562ZM10.511 39.6106C7.72153 33.9759 6.32678 29.959 5.88046 27.9505C7.21952 29.5126 9.61839 33.0275 12.4079 38.6622C15.1974 44.2968 16.5921 48.3137 17.0385 50.3223C15.6994 48.7601 13.3562 45.1896 10.511 39.6106Z" fill="#E49623"/>
<path d="M29.9259 24.3241C28.9775 23.8777 27.973 23.5987 26.9134 23.5987C25.5743 23.5987 24.2356 23.9334 22.8408 24.6588C21.2231 25.4955 19.7723 26.7229 18.4892 28.285C19.9396 29.7914 21.2787 31.5765 22.2271 33.5849C22.5062 34.143 22.7852 34.8123 23.0638 35.4817C25.2952 31.2417 27.1924 28.5636 28.3082 27.2248C27.8618 29.1777 26.5788 33.0268 23.9566 38.3271C24.0682 38.8851 24.1796 39.4989 24.2912 40.1681C24.5142 41.8975 24.5142 43.627 24.2356 45.3008C24.1239 45.8589 24.0126 46.3609 23.9009 46.8072C27.1367 45.9706 30.3166 43.2367 32.3251 39.2754C35.3376 33.3061 34.2776 26.5553 29.9259 24.3237L29.9259 24.3241Z" fill="#E49623"/>
<path d="M13.6352 17.7409C13.6908 17.8525 13.6908 17.9082 13.7469 18.0199C13.8025 18.1316 13.8025 18.1872 13.8585 18.2989C13.9142 18.4663 14.0259 18.6336 14.0815 18.7453C14.2489 19.0243 14.3606 19.3033 14.4723 19.4707C14.7513 19.8614 14.9186 20.0287 14.9186 20.0287V19.3033V18.5223V17.5183C14.9186 17.1836 14.9186 16.7929 14.9743 16.4026C15.0299 16.0119 15.086 15.6215 15.1416 15.1752C15.1973 14.7845 15.309 14.3385 15.4206 13.9478C15.5323 13.5014 15.6997 13.0551 15.8114 12.6088C15.9231 12.1067 16.0904 11.6047 16.2021 11.1023C16.3138 10.6003 16.3138 10.0422 16.3138 9.48461C16.3138 8.92655 16.2021 8.48059 16.1464 7.97818C16.0908 7.75519 16.0347 7.53181 15.9791 7.30882C15.9234 7.08583 15.8674 6.9181 15.7561 6.75076C15.6444 6.58342 15.5888 6.41608 15.5331 6.24874C15.4214 6.0814 15.3658 5.91406 15.3101 5.80237C15.1428 5.52334 14.9754 5.30035 14.8637 5.07698C14.5847 4.68626 14.4174 4.51892 14.4174 4.51892V5.24431C14.4174 5.4673 14.4174 5.74633 14.473 6.02535C14.473 6.36003 14.5287 6.63906 14.5287 7.02937V7.58743V8.14549C14.5287 8.53621 14.473 8.92653 14.417 9.37287C14.3613 9.76359 14.2496 10.2096 14.138 10.6003C14.0263 11.0466 13.915 11.493 13.7472 11.9393C13.6355 12.4413 13.4682 12.8877 13.3565 13.4457C13.2448 13.9478 13.1892 14.5059 13.1892 15.0635C13.1892 15.5655 13.2448 16.0675 13.3009 16.5699C13.4118 16.9598 13.5235 17.4062 13.6352 17.7409L13.6352 17.7409Z" fill="#E49623"/>
<path d="M17.7079 20.9209C17.7635 21.0882 17.8195 21.1999 17.8195 21.3673C17.8195 21.4229 17.8752 21.4789 17.8752 21.5902C17.8752 21.6459 17.9308 21.7019 17.9308 21.8132C18.0425 22.0923 18.0982 22.3153 18.2099 22.5386C18.3216 22.7616 18.3772 22.985 18.4889 23.1523C18.6006 23.3197 18.6562 23.5431 18.7679 23.7104C19.1026 24.3241 19.326 24.6588 19.326 24.6588C19.326 24.6588 19.2703 24.2681 19.2143 23.5431C19.1587 23.2084 19.1026 22.762 19.1026 22.3157C19.1026 22.0927 19.047 21.8137 19.047 21.5903C18.9913 21.3113 18.9913 21.0322 18.9913 20.7536C18.9913 20.4746 18.9913 20.1956 18.9357 19.8609V19.6379V19.4149V18.9129C18.9357 18.2435 18.9913 17.5738 19.103 16.9044C19.2147 16.2351 19.326 15.5097 19.5494 14.8403C19.7167 14.1149 19.9401 13.3899 20.2187 12.6645C20.4417 11.8835 20.6651 11.1024 20.8324 10.3213C20.9998 9.48462 21.0554 8.7036 21.0554 7.86645C21.0554 7.08541 20.9437 6.30433 20.8324 5.57896C20.7768 5.24428 20.7208 4.85357 20.6095 4.57494C20.4978 4.24026 20.4421 3.96123 20.3304 3.62656C20.2748 3.45922 20.2187 3.34753 20.1631 3.18019C20.1074 3.01285 20.0514 2.90116 19.9957 2.78947C19.8841 2.51044 19.7728 2.28745 19.6611 2.06408C19.4381 1.61771 19.2703 1.22739 19.103 0.948381C18.7683 0.33467 18.5449 0 18.5449 0C18.5449 0 18.6006 0.390719 18.7123 1.1157C18.7679 1.45038 18.824 1.89674 18.8796 2.34308C18.9353 2.8451 18.9913 3.3471 19.047 3.9052C19.047 4.07254 19.1026 4.18423 19.1026 4.35157C19.1026 4.51891 19.1026 4.6306 19.1583 4.79794C19.2139 5.13262 19.1583 5.41165 19.2139 5.74632V6.24834V6.75036C19.2139 6.9177 19.2139 7.08504 19.1583 7.25238C19.1583 7.41972 19.1026 7.58707 19.1026 7.75441C19.047 8.42377 18.8796 9.14916 18.7119 9.81854C18.5446 10.5439 18.3212 11.269 18.0982 11.9943C17.8752 12.7197 17.6518 13.5565 17.4845 14.3375C17.3171 15.1186 17.2054 15.9552 17.2054 16.7363C17.2054 17.5173 17.2611 18.2984 17.3171 19.0238C17.3732 19.6935 17.5405 20.3073 17.7079 20.921V20.9209Z" fill="#E49623"/>
<path d="M41.0742 25.418H47.0508V30.2695L51.2227 27.1172C51.8086 26.6719 52.2344 26.3086 52.5 26.0273C52.7656 25.7461 52.9297 25.5781 52.9922 25.5234C53.0625 25.4609 53.125 25.4141 53.1797 25.3828C53.2734 25.3203 53.3906 25.2891 53.5312 25.2891C53.6797 25.2891 53.7969 25.332 53.8828 25.418C53.9688 25.4961 54.0117 25.5859 54.0117 25.6875C54.0117 25.7812 54 25.8633 53.9766 25.9336C53.9531 25.9961 53.9062 26.0703 53.8359 26.1562C53.6797 26.3438 53.3828 26.6055 52.9453 26.9414L50.3203 28.9336L54.7148 39.6797C54.8008 39.8828 54.8828 40.0625 54.9609 40.2188L55.1484 40.6406L55.3594 41.0391C55.4141 41.1484 55.4609 41.2539 55.5 41.3555C55.5391 41.457 55.5547 41.5547 55.5469 41.6484C55.5391 41.7422 55.5117 41.8281 55.4648 41.9062C55.3555 42.0781 55.2227 42.1641 55.0664 42.1641C54.8477 42.1641 54.6836 42.1016 54.5742 41.9766C54.4336 41.8047 54.3281 41.6133 54.2578 41.4023L54.0469 40.7461C53.9766 40.5273 53.8828 40.2656 53.7656 39.9609L49.5117 29.543L47.0508 31.4062V42H41.0742V25.418ZM62.003 39.9141C60.5733 39.9141 59.5967 39.9023 59.0733 39.8789L58.7334 40.6875C58.6319 40.9141 58.5381 41.1523 58.4522 41.4023C58.2725 41.8867 58.0225 42.1289 57.7022 42.1289C57.5537 42.1289 57.4327 42.082 57.3389 41.9883C57.2452 41.8945 57.1983 41.7969 57.1983 41.6953C57.1983 41.5234 57.2725 41.332 57.4209 41.1211C57.6553 40.793 57.8858 40.3633 58.1123 39.832C57.4405 39.7695 57.1045 39.5742 57.1045 39.2461C57.1045 38.918 57.2959 38.7539 57.6787 38.7539C57.9131 38.7539 58.1866 38.793 58.4991 38.8711L64.3467 24.668L72.3623 42H66.2569L65.2842 39.9141H62.003ZM59.4483 38.9648C60.1983 39.0273 60.8702 39.0586 61.4639 39.0586H64.8975L61.9678 32.7422L59.4483 38.9648ZM85.6622 31.3594L85.1817 31.3477C85.0098 31.332 84.7911 31.3242 84.5255 31.3242H81.9005V42H75.9239V25.418H85.2286L86.3887 25.3828H86.5997C87.1856 25.3828 87.4786 25.5547 87.4786 25.8984C87.4786 26.0312 87.4239 26.1562 87.3145 26.2734C87.213 26.3828 87.0997 26.4375 86.9747 26.4375C86.7716 26.4375 86.5762 26.418 86.3887 26.3789C86.0294 26.3008 85.5606 26.2617 84.9825 26.2617H81.9005V30.4805H84.2559C84.2559 30.4805 84.7403 30.4609 85.7091 30.4219C86.1309 30.4219 86.3419 30.5781 86.3419 30.8906C86.3419 31.2031 86.1153 31.3594 85.6622 31.3594ZM100.193 31.3594L99.712 31.3477C99.5402 31.332 99.3214 31.3242 99.0558 31.3242H96.4308V42H90.4542V25.418H99.7589L100.919 25.3828H101.13C101.716 25.3828 102.009 25.5547 102.009 25.8984C102.009 26.0312 101.954 26.1562 101.845 26.2734C101.743 26.3828 101.63 26.4375 101.505 26.4375C101.302 26.4375 101.107 26.418 100.919 26.3789C100.56 26.3008 100.091 26.2617 99.5128 26.2617H96.4308V30.4805H98.7863C98.7863 30.4805 99.2706 30.4609 100.239 30.4219C100.661 30.4219 100.872 30.5781 100.872 30.8906C100.872 31.2031 100.646 31.3594 100.193 31.3594ZM115.262 40.9922C115.66 40.9922 115.86 41.1484 115.86 41.4609C115.86 41.6016 115.774 41.7266 115.602 41.8359C115.43 41.9453 115.133 42 114.711 42H104.785V25.418C107.863 25.418 110.942 25.418 114.02 25.418L114.981 25.3828C115.567 25.3828 115.86 25.5547 115.86 25.8984C115.86 26.0312 115.809 26.1562 115.707 26.2734C115.613 26.3828 115.504 26.4375 115.379 26.4375C115.176 26.4375 114.961 26.4141 114.735 26.3672C114.399 26.2969 113.938 26.2617 113.352 26.2617H110.762V29.8359H112.895C112.895 29.8359 113.375 29.8164 114.336 29.7773C114.508 29.7773 114.653 29.8203 114.77 29.9062C114.895 29.9844 114.957 30.0977 114.957 30.2461C114.957 30.5742 114.738 30.7383 114.301 30.7383L113.797 30.7266C113.539 30.7031 113.324 30.6914 113.153 30.6914H110.762V41.1445H113.352C113.93 41.1445 114.34 41.1211 114.582 41.0742C114.871 41.0195 115.098 40.9922 115.262 40.9922ZM121.015 40.3242L121.05 41.4961C121.05 41.6992 120.995 41.8555 120.886 41.9648C120.777 42.0742 120.644 42.1289 120.488 42.1289C120.339 42.1289 120.214 42.0781 120.113 41.9766C120.011 41.875 119.96 41.7656 119.96 41.6484C119.96 41.5234 119.968 41.4102 119.984 41.3086C120.007 41.1992 120.027 41.0781 120.042 40.9453C120.081 40.7188 120.101 40.1523 120.101 39.2461V24.668L132.839 34.7695V27.7852C132.839 27.2539 132.823 26.875 132.792 26.6484C132.753 26.2812 132.734 26.0234 132.734 25.875C132.734 25.4844 132.902 25.2891 133.238 25.2891C133.37 25.2891 133.495 25.3359 133.613 25.4297C133.738 25.5234 133.8 25.6602 133.8 25.8398V26.25L133.753 27.9492V42.6445L121.015 32.6484V40.3242Z" fill="#E8E8E8"/>
</svg>
