<svg width="54" height="48" viewBox="0 0 54 48" fill="none" xmlns="http://www.w3.org/2000/svg">
<g id="Group">
<path id="Vector" d="M47.911 25.412H51.0098L50.4588 45.934C50.4588 46.3471 50.9411 46.7603 51.4916 46.7603C52.1113 46.7603 52.5244 46.3471 52.5244 45.934L52.5249 2.27316C52.5249 1.92873 52.2496 1.1712 51.5608 1.1712C50.8719 1.1712 49.4261 2.0666 48.7372 10.1239C48.0488 18.3876 47.9109 23.6904 47.9109 25.412M51.4921 48C50.3214 48 49.2881 47.0359 49.2881 45.9339L49.7704 26.6515H47.4978C47.2226 26.6515 46.8782 26.5136 46.809 26.1692C46.465 25.0677 47.2913 12.6027 47.5665 10.0546C48.1175 3.09896 49.3573 0 51.4921 0H51.63C53.0072 0 53.7647 1.37719 53.7647 2.34131V46.0022C53.6955 47.0354 52.7314 47.9995 51.4921 47.9995" fill="white"/>
<path id="Vector_2" d="M24.1942 1.43507C23.9189 1.43507 23.7119 1.57293 23.7119 1.84819V13.6931C23.7119 15.7592 25.3648 17.6187 27.4996 18.1005L27.9819 18.1692L27.7066 45.6466C27.7066 46.1289 28.1198 46.4728 28.6707 46.4728C29.2217 46.4728 29.6348 46.1284 29.6348 45.7153L29.3596 18.169L29.8419 18.1003C31.9761 17.6185 33.6291 15.759 33.6291 13.6929V1.84802C33.6291 1.71015 33.4226 1.43489 33.1468 1.43489C32.8716 1.43489 32.6645 1.57276 32.6645 1.84802V10.3875C32.6645 11.2829 31.8383 12.0404 30.9429 12.0404C29.9788 12.0404 29.2212 11.3515 29.2212 10.3875V1.84802C29.2212 1.29703 28.1885 1.29703 28.1885 1.84802V10.3875C28.1885 11.2829 27.3622 12.0404 26.4668 12.0404C25.5027 12.0404 24.7452 11.3515 24.7452 10.3875V1.84802C24.6765 1.71063 24.4699 1.43489 24.1942 1.43489M28.6707 47.7127C27.4314 47.7127 26.536 46.8172 26.536 45.6466L26.8112 19.1333C24.3321 18.3757 22.5417 16.1723 22.5417 13.6931V1.84821C22.5417 0.95281 23.2992 0.195312 24.2633 0.195312C25.1587 0.195312 25.985 0.952859 25.985 1.84821V10.3877C25.985 10.6629 26.2602 10.8008 26.4673 10.8008C26.7425 10.8008 26.9496 10.5255 26.9496 10.3877V1.84821C26.9496 0.95281 27.7071 0.195312 28.6712 0.195312C29.6353 0.195312 30.3928 0.884166 30.3928 1.84821V10.3877C30.3928 10.6629 30.6681 10.8008 30.8751 10.8008C31.1504 10.8008 31.3574 10.5255 31.3574 10.3877V1.84821C31.3574 0.95281 32.115 0.195312 33.0791 0.195312C33.9745 0.195312 34.8007 0.952859 34.8007 1.84821V13.6931C34.8007 16.1723 33.0103 18.3757 30.5312 19.1333L30.8064 45.7154C30.8055 46.8866 29.8414 47.7128 28.6707 47.7128" fill="white"/>
<path id="Vector_3" d="M7.02445 1.43488C3.51242 1.43488 1.17062 6.94426 1.17062 10.6628C1.30849 14.7949 2.82352 17.2741 5.9911 18.169L6.40422 18.3069L6.19766 45.7843C6.19766 46.1974 6.67995 46.5418 7.16175 46.5418C7.64405 46.5418 8.12585 46.1974 8.12585 45.7843L7.85059 18.3069L8.33289 18.169C11.501 17.4115 13.0847 14.9323 13.0847 10.6628C13.0156 6.94426 10.5363 1.43488 7.02444 1.43488M7.09313 47.7126C5.92247 47.7126 4.95842 46.8172 4.95842 45.7158L5.23367 19.1336C2.75451 18.3761 0.206597 16.2412 0 10.732C0 6.53119 2.68576 0.264282 7.02442 0.264282C11.3626 0.264282 14.255 6.53118 14.255 10.6629C14.255 16.3101 11.5006 18.4448 9.02129 19.2024L9.29654 45.7156C9.29654 46.8171 8.26375 47.7125 7.09308 47.7125" fill="white"/>
<path id="Vector_4" d="M10.3989 9.42289C10.1236 9.42289 9.84791 9.21633 9.77922 8.8719C9.57266 7.0124 8.74643 5.56647 7.57527 4.94631C7.30001 4.80844 7.16215 4.39532 7.36871 4.12007C7.50657 3.84481 7.91969 3.70695 8.19495 3.91351C9.70999 4.73975 10.6741 6.53053 10.9493 8.73398C11.018 9.07841 10.7428 9.35366 10.3983 9.42284H10.3988" fill="white"/>
</g>
</svg>
