<svg width="22" height="21" viewBox="0 0 22 21" xmlns="http://www.w3.org/2000/svg">
<path d="M6.41523 0C2.87807 0 0 2.74887 0 6.12609V14.8755C0 18.2523 2.87977 21 6.41781 21H15.5839C19.1215 21 22 18.2511 22 14.8739V6.12363C22 2.74725 19.1202 0 15.5822 0H6.41523ZM17.6 3.36C18.0858 3.36 18.48 3.73632 18.48 4.2C18.48 4.66368 18.0858 5.04 17.6 5.04C17.1142 5.04 16.72 4.66368 16.72 4.2C16.72 3.73632 17.1142 3.36 17.6 3.36ZM11 5.04C14.1548 5.04 16.72 7.4886 16.72 10.5C16.72 13.5114 14.1544 15.96 11 15.96C7.8452 15.96 5.28 13.511 5.28 10.5C5.28 7.48902 7.8452 5.04 11 5.04ZM11 6.72C8.81276 6.72 7.04 8.41218 7.04 10.5C7.04 12.5878 8.81276 14.28 11 14.28C13.1872 14.28 14.96 12.5878 14.96 10.5C14.96 8.41218 13.1872 6.72 11 6.72Z"/>
</svg>
