<svg width="21" height="21" viewBox="0 0 21 21" xmlns="http://www.w3.org/2000/svg">
<path d="M21 0H0V21H21V0ZM7 16.3333H4.0565V8.16667H7V16.3333ZM5.47633 6.66983C4.57683 6.66983 3.976 6.07017 3.976 5.26983C3.976 4.4695 4.57567 3.86983 5.5755 3.86983C6.475 3.86983 7.07583 4.4695 7.07583 5.26983C7.07583 6.07017 6.47617 6.66983 5.47633 6.66983ZM17.5 16.3333H14.651V11.8697C14.651 10.6353 13.8915 10.3507 13.6068 10.3507C13.3222 10.3507 12.3725 10.5408 12.3725 11.8697C12.3725 12.0598 12.3725 16.3333 12.3725 16.3333H9.429V8.16667H12.3725V9.3065C12.7517 8.6415 13.5112 8.16667 14.9357 8.16667C16.3602 8.16667 17.5 9.3065 17.5 11.8697V16.3333Z"/>
</svg>
