<svg width="26" height="22" viewBox="0 0 26 22" xmlns="http://www.w3.org/2000/svg">
<path d="M26 2.60126C25.0444 3.04604 24.0168 3.34257 22.9327 3.4827C24.035 2.79543 24.8827 1.69926 25.2806 0.404131C24.2494 1.03926 23.1071 1.50557 21.8915 1.75139C20.9208 0.670522 19.5363 0 18.0025 0C15.0558 0 12.6679 2.48696 12.6679 5.55309C12.6679 5.98687 12.7161 6.40965 12.8072 6.82C8.37453 6.58613 4.44313 4.37274 1.81295 1.01344C1.35083 1.83413 1.09086 2.79543 1.09086 3.80983C1.09086 5.7377 2.03057 7.43457 3.46336 8.43461C2.58875 8.40639 1.7656 8.151 1.04488 7.74113C1.04488 7.75787 1.04488 7.78274 1.04488 7.80617C1.04488 10.5002 2.88423 12.7433 5.32229 13.254C4.87656 13.3822 4.4058 13.4535 3.92047 13.4535C3.57581 13.4535 3.24027 13.4123 2.91519 13.3511C3.59403 15.5526 5.56359 17.1619 7.89693 17.2093C6.07124 18.6962 3.77204 19.5867 1.27161 19.5867C0.839547 19.5867 0.417497 19.5609 0 19.5078C2.36157 21.0789 5.16658 22 8.17739 22C17.9883 22 23.3552 13.5367 23.3552 6.19491C23.3552 5.95435 23.348 5.71474 23.337 5.478C24.3846 4.7013 25.287 3.72087 26 2.60126Z"/>
</svg>
